<svg width="154" height="35" viewBox="0 0 154 35" fill="none" xmlns="http://www.w3.org/2000/svg">
<path d="M75.0707 32.2683H72.3452V14.5972H74.9849V16.8817H75.0355C75.4299 16.1065 76.0371 15.4596 76.7859 15.0171C77.5348 14.5745 78.3942 14.3544 79.2636 14.3827C82.6601 14.3827 84.8555 17.0731 84.8555 21.2362C84.8555 25.3994 82.6799 28.1019 79.3141 28.1019C78.4616 28.1317 77.6178 27.9216 76.8788 27.4953C76.1399 27.069 75.5355 26.4438 75.1345 25.6909H75.0707V32.2683ZM78.542 16.6804C76.4588 16.6804 75.0586 18.5118 75.0586 21.2373C75.0586 24.0058 76.4258 25.7943 78.542 25.7943C80.7055 25.7943 82.0507 24.0487 82.0507 21.2373C82.0507 18.426 80.7066 16.6804 78.5431 16.6804H78.542ZM59.8524 32.2683H57.1258V14.5972H59.7655V16.8817H59.8161C60.2106 16.1068 60.8177 15.4604 61.5663 15.018C62.3149 14.5756 63.174 14.3556 64.0431 14.3838C67.4396 14.3838 69.635 17.0742 69.635 21.2373C69.635 25.4005 67.4594 28.103 64.0937 28.103C63.2411 28.1328 62.3973 27.9227 61.6583 27.4964C60.9194 27.0701 60.315 26.4449 59.914 25.692H59.8524V32.2683ZM63.3237 16.6804C61.2405 16.6804 59.8403 18.5118 59.8403 21.2373C59.8403 24.0058 61.2075 25.7943 63.3237 25.7943C65.4872 25.7943 66.8324 24.0487 66.8324 21.2373C66.8324 18.426 65.4872 16.6804 63.3237 16.6804ZM9.04779 34.8461C6.75449 34.8461 4.97814 32.3009 3.68026 30.4465C1.99206 27.906 0.846267 25.0445 0.314546 22.041C-0.360166 18.9386 0.0579281 15.6984 1.49804 12.8689C2.21246 11.5852 3.24745 10.5087 4.50202 9.74436C5.75659 8.98001 7.18788 8.55396 8.65623 8.50777H8.75522C9.96148 8.58172 11.1424 8.88601 12.2342 9.40419H12.2452H12.2518H12.2584C12.9396 9.741 13.6751 9.95439 14.4307 10.0344C15.1473 9.94736 15.8446 9.7422 16.4942 9.42729H16.5052H16.5151H16.5206C17.7835 8.84148 19.1446 8.49608 20.5341 8.40878C20.6947 8.40878 20.8828 8.41868 21.0929 8.43738C22.3523 8.47803 23.585 8.81126 24.6934 9.41071C25.8018 10.0101 26.7555 10.8593 27.4789 11.8911C26.344 12.5938 25.4039 13.5704 24.7449 14.7312C24.0859 15.892 23.7291 17.1998 23.7073 18.5345C23.696 19.5628 23.8977 20.5823 24.2998 21.5288C24.7019 22.4753 25.2956 23.3283 26.0435 24.034C26.7208 24.6868 27.5128 25.2089 28.3797 25.5739V25.5827C27.8265 27.3435 27.0071 29.0094 25.95 30.5224C24.4102 32.8388 22.9385 34.7592 20.6364 34.7933H20.5066C19.617 34.7751 18.7428 34.5579 17.9482 34.1576H17.9416C16.9906 33.6926 15.9479 33.4454 14.8894 33.4338C13.7841 33.4385 12.694 33.6915 11.6997 34.1741H11.6942H11.6832H11.6777C10.892 34.5598 10.0379 34.7867 9.16438 34.8417H9.04779V34.8461ZM99.8813 28.1778C98.126 28.2487 96.3965 27.7379 94.9614 26.7248C94.3544 26.2615 93.8581 25.669 93.5083 24.9903C93.1584 24.3115 92.9639 23.5635 92.9387 22.8003H95.7281C95.9282 24.5899 97.6771 25.7921 100.083 25.7921C102.371 25.7921 104.032 24.6086 104.032 22.9774C104.032 21.5651 103.028 20.7149 100.675 20.1374L98.315 19.5688C94.9735 18.7626 93.4171 17.2018 93.4171 14.6588C93.4171 11.5373 96.1427 9.35837 100.044 9.35837C103.888 9.35837 106.534 11.4889 106.619 14.6588H103.87C103.707 12.8605 102.226 11.7441 100.007 11.7441C97.8289 11.7441 96.3088 12.8649 96.3088 14.4707C96.3088 15.7543 97.2668 16.5144 99.6162 17.0962L101.622 17.5879C103.109 17.8444 104.503 18.4843 105.667 19.4445C106.087 19.8583 106.416 20.3565 106.63 20.9063C106.844 21.4561 106.939 22.0449 106.91 22.6342C106.91 26.056 104.216 28.1789 99.8802 28.1789L99.8813 28.1778ZM147.818 28.1272C143.957 28.1272 141.558 25.5105 141.558 21.2989C141.48 19.4739 142.073 17.6836 143.225 16.2658C143.787 15.6399 144.48 15.1447 145.254 14.8149C146.028 14.485 146.864 14.3285 147.705 14.3563C148.521 14.3251 149.334 14.47 150.089 14.7813C150.843 15.0926 151.522 15.5629 152.078 16.1602C153.194 17.513 153.767 19.2317 153.688 20.9833V21.9182H144.309V22.0821C144.257 22.576 144.312 23.0753 144.469 23.5463C144.627 24.0173 144.883 24.4491 145.222 24.8126C145.56 25.1761 145.973 25.4629 146.431 25.6537C146.89 25.8444 147.384 25.9347 147.88 25.9185C148.533 25.9732 149.187 25.813 149.74 25.4621C150.294 25.1113 150.718 24.5891 150.948 23.975H153.536C153.438 24.5705 153.223 25.1408 152.903 25.653C152.584 26.1653 152.167 26.6095 151.676 26.9602C150.547 27.7514 149.195 28.1607 147.817 28.1283L147.818 28.1272ZM147.708 16.5529C146.803 16.5682 145.94 16.9398 145.307 17.5872C144.674 18.2346 144.322 19.1054 144.326 20.011H150.965C150.993 19.5663 150.929 19.1208 150.778 18.7018C150.626 18.2829 150.39 17.8996 150.084 17.5756C149.779 17.2516 149.41 16.9938 149 16.8183C148.591 16.6427 148.15 16.5531 147.704 16.5551L147.708 16.5529ZM124.032 28.1283C123.183 28.1607 122.337 28.0135 121.549 27.6962C120.76 27.3789 120.048 26.8987 119.459 26.287C118.264 24.8828 117.648 23.0776 117.734 21.2362C117.649 19.3978 118.267 17.596 119.462 16.1965C120.691 15.0174 122.328 14.3591 124.031 14.3591C125.734 14.3591 127.371 15.0174 128.6 16.1965C129.796 17.5956 130.414 19.3976 130.329 21.2362C130.415 23.0775 129.798 24.8827 128.604 26.287C128.015 26.8984 127.303 27.3784 126.515 27.6957C125.727 28.013 124.881 28.1604 124.032 28.1283ZM124.032 16.6056C122.092 16.6056 120.512 18.6878 120.512 21.2472C120.512 23.8067 122.091 25.8877 124.032 25.8877C125.973 25.8877 127.552 23.8056 127.552 21.2472C127.552 18.6889 125.968 16.6056 124.031 16.6056H124.032ZM114.267 27.9644C111.579 27.9644 110.527 26.9591 110.527 24.3798V16.7596H108.598V14.5972H110.529V11.4559H113.268V14.5983H115.793V16.7596H113.268V24.0795C113.268 25.2322 113.766 25.7459 114.884 25.7459C115.184 25.7476 115.484 25.7262 115.78 25.6821V27.8412C115.281 27.9328 114.774 27.9741 114.266 27.9644H114.267ZM41.5632 27.8775H38.6254L45.2017 9.66304H48.2561L54.8325 27.8753H51.8407L50.1744 22.9521H43.2329L41.5665 27.8753L41.5632 27.8775ZM46.6646 12.69L43.9511 20.6797H49.4506L46.7415 12.69H46.6646ZM135.779 27.8742H133.052V14.5972H135.652V16.8575H135.716C135.884 16.1421 136.292 15.506 136.873 15.0557C137.454 14.6054 138.171 14.3682 138.906 14.3838C139.22 14.388 139.532 14.4219 139.84 14.485V17.0214C139.442 16.9072 139.03 16.8559 138.617 16.8696C138.22 16.8525 137.825 16.9215 137.458 17.072C137.091 17.2225 136.762 17.4509 136.492 17.7413C136.222 18.0317 136.018 18.3773 135.894 18.7541C135.771 19.131 135.731 19.5302 135.777 19.9241V27.8753L135.779 27.8742ZM14.4989 8.04471C14.3851 8.04602 14.2713 8.04161 14.158 8.03151C14.0308 6.06691 14.6891 4.13225 15.9882 2.65297C17.3043 1.15454 19.1368 0.207246 21.1204 0C21.2808 2.02365 20.6401 4.02938 19.3363 5.58532C18.748 6.31206 18.0131 6.90668 17.1797 7.33043C16.3462 7.75419 15.4328 7.99757 14.4989 8.04471Z" fill="white"/>
</svg>
