<svg width="92" height="92" viewBox="0 0 92 92" fill="none" xmlns="http://www.w3.org/2000/svg">
<rect width="92" height="92" rx="46" fill="#E0E7FF"/>
<path d="M54 35.5V27.8065C54 26.8387 53.1852 26 52.0988 26H22.9012C21.8827 26 21 26.7742 21 27.8065V45.8065C21 46.7742 21.8148 47.6129 22.9012 47.6129H27.5864V56L36.821 47.6129H37.5" stroke="#3861ED" stroke-width="3" stroke-miterlimit="10" stroke-linecap="round" stroke-linejoin="round"/>
<path d="M39.8398 42H68.1602C69.1458 42 70 42.8 70 43.8667V62.4667C70 63.4667 69.2115 64.3333 68.1602 64.3333H63.6263V73L54.6899 64.3333H39.8398C38.8542 64.3333 38 63.5333 38 62.4667V43.8667C38 42.8667 38.7885 42 39.8398 42Z" stroke="#3861ED" stroke-width="3" stroke-miterlimit="10" stroke-linecap="round" stroke-linejoin="round"/>
<path d="M29 34H46" stroke="#3861ED" stroke-width="3" stroke-miterlimit="10" stroke-linecap="round" stroke-linejoin="round"/>
<path d="M44 50H62" stroke="#3861ED" stroke-width="3" stroke-miterlimit="10" stroke-linecap="round" stroke-linejoin="round"/>
<path d="M44 57H62" stroke="#3861ED" stroke-width="3" stroke-miterlimit="10" stroke-linecap="round" stroke-linejoin="round"/>
<path d="M29 40H34" stroke="#3861ED" stroke-width="3" stroke-miterlimit="10" stroke-linecap="round" stroke-linejoin="round"/>
</svg>
