<svg xmlns="http://www.w3.org/2000/svg" width="571.547" height="361.102"><defs><style>.a{fill:#e0e0e0}.c{fill:#fff}.d{fill:#ebebeb}.e{fill:#263238}.f{fill:#455a64}.g{fill:#ff9a00}.h{fill:#fafafa}.k{fill:#ffbe9d}.l{opacity:.6}.m{fill:#eb996e}</style></defs><path class="a" d="M30.568 22.237h79.806v115.681H30.568z"/><path fill="#f5f5f5" d="M26.567 22.237h79.806v115.681H26.567z"/><path class="c" d="M36.484 34.764h59.98v90.619h-59.98z"/><path class="a" d="M96.464 125.391v-6.7c0-4.35 0-10.674-.061-18.668 0-15.98-.052-38.615-.1-65.243l.2.2H36.535l.217-.217v90.627l-.174-.174 43.661.087 12.057.044H80.344l-43.765.087h-.174V34.416h60.4v.357c0 26.706-.078 49.376-.1 65.391 0 7.977-.043 14.284-.061 18.616v6.194a.52.52 0 01-.18.417z"/><path class="a" d="M106.607 22.237a14.3 14.3 0 01-1.427 2.1c-.922 1.235-2.244 2.923-3.741 4.75s-2.906 3.436-3.949 4.584a13.8 13.8 0 01-1.74 1.792 14.9 14.9 0 011.522-1.992l3.845-4.663 3.828-4.689a14.788 14.788 0 011.662-1.879z"/><path class="c" d="M96.769 125.095a74.368 74.368 0 0010.439 13.049"/><path class="a" d="M107.234 138.178a11 11 0 01-1.827-1.662 58.607 58.607 0 01-3.949-4.445 63.088 63.088 0 01-3.48-4.828 12.6 12.6 0 01-1.218-2.149 16.674 16.674 0 011.47 1.975c.87 1.235 2.123 2.923 3.558 4.724s2.827 3.384 3.836 4.515a17.209 17.209 0 011.609 1.87z"/><path class="c" d="M26.558 137.822l10.439-12.892"/><path class="a" d="M37.014 124.93a81.456 81.456 0 01-5.063 6.585 76.912 76.912 0 01-5.393 6.307 81.457 81.457 0 015.063-6.585 76.917 76.917 0 015.393-6.307zM26.567 22.237a72.438 72.438 0 015.08 6.089 71.6 71.6 0 014.732 6.342 72.527 72.527 0 01-5.072-6.089 72.05 72.05 0 01-4.74-6.342zm31.125 30.925h20.086v57.023H57.692zM217.973 5.378v50.664h-72.758l-2.62-50.307z"/><path class="c" d="M142.587 55.929V5.735h72.759v50.194z"/><path class="a" d="M215.695 56.277h-73.447V5.387h73.447zm-72.751-.687h72.063V6.067h-72.063z"/><path class="c" d="M150.477 11.972h56.997v37.719h-56.997z"/><path class="a" d="M207.474 11.972h-15.972l-41.025.183.165-.165v37.717l-.174-.174h57l-.148.139c0-11.474.061-20.878.078-27.446v-7.644c0 1.74 0 4.3.043 7.56 0 6.577.043 16.024.07 27.533v.148H150.19V11.807h.165l41.138.078 11.709.052h4.149z"/><path class="a" d="M142.595 5.595a5.968 5.968 0 011.253.809c.739.539 1.74 1.3 2.853 2.175s2.053 1.74 2.732 2.323a6.465 6.465 0 011.044 1.07 49.638 49.638 0 01-4-3.114 39.888 39.888 0 01-3.882-3.263zm72.759.14a35.225 35.225 0 01-3.828 3.262 35.667 35.667 0 01-4.054 2.975A35.225 35.225 0 01211.3 8.71a34.8 34.8 0 014.054-2.975z"/><path class="c" d="M215.294 55.938l-8.116-6.577"/><path class="a" d="M207.178 49.361a39.769 39.769 0 014.176 3.149 38.847 38.847 0 013.941 3.427 37.406 37.406 0 01-4.167-3.149 37.22 37.22 0 01-3.949-3.427zm-64.583 6.57a34.34 34.34 0 013.784-3.219 35.224 35.224 0 014.01-2.949 32.97 32.97 0 01-3.784 3.227 34.448 34.448 0 01-4.01 2.94zm19.452-19.575V23.725h35.866v12.631z"/><path class="d" d="M514.405 232.39s-6.533-3.045-11.657 12.266-6.646 23.931-6.646 23.931-1.47 3.271-3.81 1.627-5.968-6.751-9.3-5.219-4.045 5.776-2.471 11.6 4.558 18.686 4.819 19.851-.148 2.949-1.914 2.088-12.57-9.778-16.528-4.41 3.123 20.878 3.862 22.565.5 2.523-.278 3.088-4.115-2.775-7.29-5.219-7.272-4.645-9.282-1.357-.966 15.545 13.536 33.535l7.264 7.89 10.552-2.183c22.3-6.046 30.334-15.354 30.638-19.2s-4.35-4.437-8.308-4.35-8.647.826-8.943-.1 0-1.74 1.583-2.61 16.4-9.352 16.38-16.006-14-5.768-15.937-6.089-1.209-2.044-.331-2.819 10.865-9.456 15.554-13.24 6.69-7.533 4.811-10.83-7.742-1.183-10.6-1.227-2.131-3.558-2.131-3.558 3.828-7.829 8.7-23.27-2.418-16.772-2.418-16.772"/><path class="a" d="M473.336 356.805c3.6-11.309 10.335-31.273 16.032-48.454s10.839-32.726 14.5-44c1.818-5.637 3.288-10.2 4.35-13.362.513-1.566.87-2.792 1.183-3.636l.313-.94c.07-.217.113-.322.113-.322a1.01 1.01 0 01-.087.331c-.087.217-.157.539-.278.948-.261.87-.635 2.079-1.122 3.654-.974 3.175-2.41 7.751-4.219 13.4-3.6 11.309-8.7 26.863-14.4 44.035s-12.475 37.145-16.137 48.419"/><path class="a" d="M487.785 272.328a4.346 4.346 0 01.374.679c.226.444.531 1.1.87 1.914.739 1.627 1.74 3.9 2.705 6.42s1.879 4.741 2.61 6.463c.3.774.574 1.435.783 1.957a2.944 2.944 0 01.261.731 4.348 4.348 0 01-.374-.679c-.226-.444-.531-1.1-.87-1.914-.722-1.635-1.653-3.915-2.662-6.437s-1.914-4.732-2.61-6.446l-.8-1.957a3.1 3.1 0 01-.287-.731zm8.621 18.198c-.043-.087 4.55-2.262 10.256-4.872s10.352-4.645 10.439-4.558-4.558 2.262-10.265 4.863-10.43 4.663-10.43 4.567zm-9.969 25.994a3.481 3.481 0 01.783-.157l2.131-.313c1.792-.261 4.28-.635 7-1.157s5.167-1.053 6.959-1.47l2.1-.478a3.166 3.166 0 01.783-.139 4.345 4.345 0 01-.748.261c-.487.148-1.192.357-2.07.592-1.74.47-4.21 1.053-6.959 1.566s-5.219.87-7.038 1.061c-.87.1-1.635.174-2.149.209a4.55 4.55 0 01-.792.025zm-11.396-14.763a3.185 3.185 0 01.5.531l1.279 1.531c1.07 1.3 2.523 3.106 4.115 5.115s3.027 3.836 4.045 5.176l1.192 1.592a3.707 3.707 0 01.409.609 2.782 2.782 0 01-.5-.531l-1.279-1.522c-1.07-1.3-2.523-3.106-4.123-5.115s-3.019-3.845-4.036-5.176l-1.192-1.592a3.164 3.164 0 01-.409-.618zm-11.692 21.826a4.479 4.479 0 01.635.687c.435.5.983 1.166 1.644 1.949 1.383 1.653 3.262 3.958 5.333 6.516s3.923 4.88 5.219 6.577l1.566 2.01a5.277 5.277 0 01.531.774 5.941 5.941 0 01-.635-.687l-1.644-1.949c-1.374-1.662-3.262-3.958-5.333-6.516s-3.923-4.88-5.219-6.577c-.626-.809-1.157-1.488-1.557-2.018a4.776 4.776 0 01-.54-.766zm14.789 17.963a6.6 6.6 0 01.974-.217l2.688-.487c2.27-.418 5.4-1.009 8.838-1.74s6.533-1.5 8.769-2.062l2.653-.661a6.224 6.224 0 01.983-.209 5.521 5.521 0 01-.948.331c-.618.191-1.514.461-2.61.765-2.227.626-5.315 1.418-8.76 2.157s-6.585 1.3-8.864 1.661c-1.14.183-2.07.313-2.705.391a5.342 5.342 0 01-1.018.071z"/><path class="e" d="M533.812 356.495c0 .122-119.517.226-266.906.226S0 356.639 0 356.495s119.491-.226 266.941-.226 266.871.1 266.871.226z"/><g transform="translate(306.232)"><path class="e" d="M56.07 60.837l8.277-7.079 11.048 12.918-8.277 7.079z"/><path class="f" d="M71.501 52.754L54.468 67.385l-11.944-13.92c4.7-6.594 10.3-11.57 17.007-14.632z"/><path class="e" d="M57.339 64.932c-.1.087-2.975-3.079-6.437-7.055a94.7 94.7 0 01-6.089-7.351c.1-.087 2.975 3.079 6.437 7.055s6.185 7.273 6.089 7.351zm3.219-2.783A20.142 20.142 0 0158.644 60a413.918 413.918 0 01-4.419-5.306l-4.35-5.359-1.3-1.627c-.313-.4-.478-.583-.478-.609.174-.157 3.071 3.14 6.5 7.307 1.74 2.088 3.236 3.993 4.35 5.393a16.175 16.175 0 011.618 2.349zm4.349-3.715a19.628 19.628 0 01-1.94-2.149 397.879 397.879 0 01-4.445-5.385l-4.35-5.446-1.3-1.662a4.463 4.463 0 01-.452-.635 12.289 12.289 0 012 2.1c1.174 1.348 2.758 3.245 4.471 5.359s3.253 4.054 4.35 5.472a17.135 17.135 0 011.67 2.349zm3.924-3.48c-.1.078-2.958-3.114-6.394-7.133s-6.133-7.351-6.037-7.438 2.949 3.114 6.385 7.142 6.141 7.35 6.046 7.429zm133.752-.276l7.526 7.874-12.29 11.746-7.526-7.874z"/><path class="f" d="M210.469 70.299l-15.502-16.221 13.249-12.66c6.82 4.35 12.092 9.682 15.493 16.224z"/><path class="e" d="M197.56 56.799c-.087-.1 2.914-3.14 6.707-6.8s6.959-6.559 7.02-6.472-2.914 3.132-6.707 6.8-6.933 6.559-7.02 6.472zm2.957 3.088a18.214 18.214 0 012.018-2.036 400.557 400.557 0 015.063-4.706l5.124-4.637 1.557-1.392c.374-.331.557-.5.583-.5.165.165-2.975 3.236-6.959 6.872-1.992 1.818-3.819 3.48-5.159 4.6a18.194 18.194 0 01-2.227 1.8zm3.932 4.114a18.271 18.271 0 012.044-2.053c1.3-1.227 3.114-2.9 5.141-4.724l5.219-4.645 1.592-1.392a7.379 7.379 0 01.609-.487 12.257 12.257 0 01-1.983 2.114c-1.287 1.244-3.106 2.923-5.124 4.75s-3.88 3.48-5.219 4.628a18.925 18.925 0 01-2.279 1.809zm3.681 3.75c-.087-.1 2.958-3.114 6.794-6.759s7.02-6.516 7.107-6.42-2.958 3.114-6.794 6.751-7.02 6.506-7.107 6.428zM127.767 24.96h12.892v20.121h-12.892z"/><path class="g" d="M147.548 30.979h-26.532V9.293c9.3-2.3 18.172-2.436 26.558 0z"/><path class="e" d="M147.888 9.38a5.549 5.549 0 01-.983.487 23.807 23.807 0 01-2.792 1.026 33.368 33.368 0 01-4.35 1.026 36.736 36.736 0 01-5.4.452 35.943 35.943 0 01-5.4-.4 32.622 32.622 0 01-4.35-.983 25.493 25.493 0 01-2.8-1 4.593 4.593 0 01-.983-.478c0-.078 1.461.522 3.871 1.166a37.407 37.407 0 004.3.87 40.476 40.476 0 005.341.365 40.224 40.224 0 005.341-.418 38.415 38.415 0 004.28-.87c2.464-.704 3.89-1.321 3.925-1.243zm-18.103 21.539c-.122 0-.226-4.167-.226-9.3s.1-9.3.226-9.3.226 4.158.226 9.3-.095 9.3-.226 9.3z"/><path class="e" d="M134.839 31.04c-.122 0-.226-4.184-.226-9.343s.1-9.334.226-9.334.226 4.176.226 9.334-.095 9.343-.226 9.343zm5.054-.078c-.122 0-.226-4.184-.226-9.343s.1-9.343.226-9.343.226 4.184.226 9.343-.092 9.343-.226 9.343zm4.176.001c-.13 0-.226-4.524-.226-10.1s.1-10.1.226-10.1.226 4.524.226 10.1a100.293 100.293 0 01-.226 10.1zm-19.06-.132c-.122 0-.226-4.524-.226-10.1s.1-10.1.226-10.1.226 4.524.226 10.1-.095 10.1-.226 10.1z"/><circle class="g" cx="93.803" cy="93.803" r="93.803" transform="rotate(-45 160.131 66.329)"/><circle class="h" cx="78.779" cy="78.779" r="78.779" transform="translate(53.877 53.136)"/><path class="e" d="M211.435 131.915s0-.426-.061-1.27 0-2.105-.165-3.749a78.352 78.352 0 00-2.244-14.214 77.179 77.179 0 00-3.227-9.882 76.286 76.286 0 00-5.48-11.083 79.726 79.726 0 00-20.008-22.348 78.465 78.465 0 00-33.1-14.684 80.084 80.084 0 00-30.8.357 84.863 84.863 0 00-10.509 3 78.788 78.788 0 00-36.536 27.394 76.944 76.944 0 00-6.4 10.317c-.966 1.8-1.792 3.671-2.61 5.55a57.29 57.29 0 00-2.166 5.811 75.142 75.142 0 00-2.992 12.179 84.748 84.748 0 00-1.035 12.64 86.126 86.126 0 001.026 12.649 77.34 77.34 0 002.992 12.179c.626 1.975 1.409 3.888 2.166 5.8a58.936 58.936 0 002.61 5.559 76.117 76.117 0 006.404 10.321 78.762 78.762 0 0036.536 27.4 84.86 84.86 0 0010.509 3 79.033 79.033 0 0010.535 1.47 78.444 78.444 0 0053.369-15.8 79.59 79.59 0 0020.008-22.348 76.727 76.727 0 005.48-11.083 78.178 78.178 0 005.472-24.1c.148-1.644.122-2.906.165-3.749s.061-1.279.061-1.279v1.289c0 .844 0 2.105-.122 3.749a77.181 77.181 0 01-5.367 24.175 76.083 76.083 0 01-5.463 11.135 79.736 79.736 0 01-20.008 22.47 78.863 78.863 0 01-53.6 15.937 79.6 79.6 0 01-10.587-1.47 83.87 83.87 0 01-10.569-3.01 79.162 79.162 0 01-36.754-27.533 76.853 76.853 0 01-6.437-10.369c-.974-1.809-1.809-3.706-2.662-5.594a52.119 52.119 0 01-2.175-5.837 77.272 77.272 0 01-3.01-12.231 78.64 78.64 0 010-25.436 77.423 77.423 0 013.014-12.186c.635-1.992 1.418-3.915 2.183-5.837a53.791 53.791 0 012.653-5.585 77.791 77.791 0 016.446-10.369 79.092 79.092 0 0136.745-27.524 84.171 84.171 0 0110.561-3.01 79.926 79.926 0 0110.6-1.47 78.856 78.856 0 0153.587 15.937 79.2 79.2 0 0128.707 43.53 78.015 78.015 0 012.166 14.258c.131 1.644.087 2.906.122 3.749a6.407 6.407 0 01-.03 1.195z"/><path class="e" d="M199.874 129.062c-2.5.1-4.532 0-4.541-.217s2-.513 4.5-.652 4.532-.052 4.55.209-2.03.556-4.509.66zm-1.679 18.137c-2.436-.574-4.35-1.209-4.35-1.427s2.07.044 4.515.574 4.35 1.174 4.35 1.427-2.097-.008-4.515-.574zm-6.499 17.007c-2.2-1.2-3.888-2.34-3.784-2.531s1.983.6 4.193 1.74 3.906 2.314 3.784 2.54-2-.54-4.193-1.749zm-10.83 14.65c-1.792-1.74-3.123-3.288-2.966-3.48s1.74 1.1 3.567 2.827 3.14 3.262 2.966 3.48-1.783-1.079-3.567-2.827zm-14.354 11.222c-1.253-2.166-2.123-4.01-1.931-4.123s1.392 1.54 2.679 3.68 2.157 3.984 1.94 4.123-1.426-1.532-2.688-3.68zm-16.832 6.951c-.626-2.427-.966-4.437-.748-4.489s.922 1.853 1.592 4.263 1 4.419.748 4.489-.965-1.845-1.592-4.263zm-18.086 2.156c0-2.505.252-4.532.47-4.532s.4 2.036.4 4.532-.217 4.532-.47 4.532-.443-2.018-.4-4.532zm-17.972-2.722c.713-2.4 1.461-4.289 1.679-4.228s-.165 2.062-.87 4.471-1.427 4.35-1.679 4.228.112-2.07.87-4.471zm-16.641-7.49c1.331-2.114 2.558-3.741 2.749-3.628s-.713 1.949-2.01 4.089-2.531 3.758-2.749 3.628.679-1.967 2.01-4.089zm-13.997-11.657c1.853-1.688 3.48-2.923 3.619-2.758s-1.2 1.679-3.027 3.393-3.436 2.949-3.619 2.766 1.183-1.713 3.027-3.401zm-10.369-14.98c2.236-1.122 4.132-1.879 4.228-1.688s-1.609 1.3-3.828 2.462-4.106 1.922-4.228 1.688 1.601-1.331 3.828-2.462zm-5.969-17.206c2.462-.487 4.489-.7 4.532-.487s-1.905.818-4.35 1.34-4.48.739-4.532.487 1.915-.853 4.35-1.34zm-1.104-18.147c2.5.183 4.506.513 4.5.731s-2.053.278-4.55.13-4.515-.47-4.5-.731 2.053-.356 4.55-.13zm3.784-17.856c2.357.87 4.2 1.74 4.132 1.923s-2.053-.287-4.419-1.1-4.21-1.67-4.132-1.914 2.07.235 4.419 1.091zm8.45-16.14c2.036 1.453 3.584 2.775 3.48 2.958s-1.9-.826-3.958-2.244-3.61-2.74-3.48-2.958 1.911.791 3.958 2.244zm12.445-13.292c1.575 1.94 2.714 3.628 2.549 3.775s-1.618-1.3-3.219-3.227-2.749-3.6-2.549-3.767 1.645 1.279 3.219 3.219zm15.572-9.482c.992 2.3 1.644 4.228 1.435 4.35s-1.2-1.688-2.227-3.967-1.679-4.21-1.444-4.35 1.218 1.679 2.236 3.967zm17.52-4.933c.339 2.479.444 4.515.217 4.55s-.7-1.949-1.079-4.419-.478-4.515-.226-4.55.748 1.94 1.088 4.419zm18.216-.06c-.331 2.479-.774 4.471-.992 4.445s-.165-2.07.13-4.55.739-4.48.992-4.445.2 2.062-.13 4.55zm17.563 4.81c-.983 2.305-1.949 4.1-2.157 4.01s.409-2.027 1.357-4.35 1.923-4.106 2.157-4-.365 2.044-1.357 4.34zm15.624 9.368c-1.566 1.957-2.975 3.427-3.149 3.288s.931-1.853 2.471-3.828 2.94-3.48 3.149-3.28-.927 1.872-2.471 3.82zm12.552 13.206c-2.036 1.461-3.784 2.505-3.915 2.323s1.392-1.531 3.4-3.027 3.758-2.531 3.915-2.323-1.364 1.566-3.4 3.027zm8.552 16.111c-2.349.87-4.35 1.383-4.4 1.183s1.74-1.1 4.1-2 4.3-1.427 4.393-1.183-1.745 1.13-4.093 2zm3.924 17.763c-2.5.2-4.532.183-4.55 0s1.983-.583 4.471-.87 4.532-.217 4.55.044-2.001.626-4.471.826z"/><path class="c" d="M102.061 46.69l-.27.122-.8.322c-.7.3-1.74.652-3.071 1.235a91.344 91.344 0 00-10.9 5.437c-2.227 1.287-4.584 2.827-7.064 4.558a79.808 79.808 0 00-7.542 6.02 88.9 88.9 0 00-24.7 36.127c-1.192 3.184-2.088 6.3-2.862 9.212a78.531 78.531 0 00-1.688 8.238 92.148 92.148 0 00-1.1 12.127c-.07 1.444 0 2.558 0 3.314v.87a1.862 1.862 0 010 .3 1.208 1.208 0 010-.287v-.87c0-.757-.1-1.87-.052-3.314a85.527 85.527 0 01.966-12.179c.365-2.558.931-5.333 1.635-8.282a94.455 94.455 0 012.836-9.265 88.018 88.018 0 0124.819-36.3c2.549-2.27 5.141-4.228 7.594-6.011a72.932 72.932 0 017.125-4.532 86.34 86.34 0 0110.987-5.324c1.331-.557 2.4-.87 3.114-1.157l.818-.278a1.2 1.2 0 01.157-.078zm26.184-5.08a18.493 18.493 0 01-2.714.357c-1.688.174-4 .426-6.559.757s-4.863.679-6.533.94a18.193 18.193 0 01-2.714.348 14.938 14.938 0 012.662-.661c1.662-.339 3.967-.739 6.524-1.07s4.9-.539 6.594-.635a14.631 14.631 0 012.74-.035z"/><path d="M69.692 179.273s40.825 64.426 104.154 31.43c66.113-34.448 29.577-113.41 29.577-113.41s31.109 62.93-33.331 103.954c-16.05 10.221-33.526 10.23-46.853 8.891-34.061-3.415-53.547-30.865-53.547-30.865z"/><path class="a" d="M154.613 90.046a270.677 270.677 0 01-1.044 34.631c-.4 4.167-.87 8.377-2.479 12.248s-4.35 7.42-8.212 9.056-8.8.957-11.492-2.244z"/><path class="g" d="M130.942 125.704l28.629-48.21-17.276 54.43-8.83 2.636z"/><path d="M159.571 77.494l-21.235 49.263 3.958 5.167z"/><circle class="h" cx="9.212" cy="9.212" r="9.212" transform="translate(124.252 125.347)"/><path class="e" d="M142.678 134.559a20 20 0 00-.374-2.227 9.2 9.2 0 00-3.358-4.967 9.038 9.038 0 00-8.551-1.261 8.35 8.35 0 00-2.27 1.227 8.464 8.464 0 00-1.905 1.914 8.986 8.986 0 000 10.63 9.087 9.087 0 0016.111-3.088 19.29 19.29 0 00.374-2.227 7.229 7.229 0 01-.2 2.27 9.186 9.186 0 01-3.341 5.22 9.281 9.281 0 01-3.941 1.783 9.421 9.421 0 01-4.941-.383 8.6 8.6 0 01-2.392-1.279 8.907 8.907 0 01-2-2 9.351 9.351 0 010-11.152 9.09 9.09 0 012-2 8.934 8.934 0 012.392-1.27 9.319 9.319 0 0112.222 6.577 7.232 7.232 0 01.174 2.236z"/><circle class="f" cx="6.855" cy="6.855" r="6.855" transform="rotate(-78.57 148.243 -6.685)"/></g><path class="a" d="M367.068 355.673h45.322l-21.13-182.107z"/><path class="h" d="M144.057 173.566L114.55 357.822l251.8 3.28 24.91-187.536z"/><path class="d" d="M380.047 257.974H130.539l5.428-33.927h248.586z"/><path class="e" d="M380.064 258H130.513l5.437-33.927h248.629zm-249.5-.043H380.03l4.5-33.927H135.993z"/><path class="g" d="M144.057 173.566l-8.09 50.481h248.586l6.707-50.481z"/><path class="e" d="M144.092 173.567l247.2-.209h.235v.235c-7.281 54.9-15.545 117.16-24.279 182.916v.2h-3.027l-249.464-.07h-.242v-.217l29.577-182.855c-.244 1.514-11.483 72.159-29.116 182.942l-.183-.217h252.2l-.217.191a311348.2 311348.2 0 0124.358-182.908l.2.226z"/><path class="e" d="M384.553 224.047c0 .122-55.674.226-124.284.226s-124.3-.1-124.3-.226 55.674-.226 124.3-.226 124.284.096 124.284.226zm-4.507 33.927c0 .13-55.97.226-124.989.226s-125-.1-125-.226 55.953-.226 125-.226 124.989.104 124.989.226zm-5.079 31.221c0 .13-55.961.226-124.98.226s-125.033-.095-125.033-.226 55.953-.226 125-.226 125.013.104 125.013.226zm-5.073 31.221c0 .122-55.97.226-124.989.226s-125-.1-125-.226 55.953-.226 125-.226 124.989.1 124.989.226z"/><path class="e" d="M149.895 356.761c-.122 0 4.445-29.751 10.213-66.392s10.526-66.348 10.648-66.322-4.445 29.734-10.2 66.392-10.531 66.339-10.661 66.322zm38.476 0c-.13 0 4.445-29.751 10.2-66.392s10.526-66.348 10.656-66.322-4.445 29.734-10.213 66.392-10.556 66.339-10.643 66.322zm35.753-1.331c-.122 0 4.4-29.447 10.1-65.722s10.439-65.687 10.552-65.661-4.4 29.438-10.1 65.73-10.439 65.67-10.552 65.653zm35.362 1.052c-.122 0 4.437-29.69 10.187-66.252s10.509-66.209 10.63-66.183-4.437 29.673-10.187 66.252-10.509 66.201-10.63 66.183zm35.536 0c-.122 0 4.437-29.69 10.187-66.252s10.509-66.209 10.63-66.183-4.428 29.673-10.178 66.252-10.509 66.201-10.639 66.183zm35.51.158c-.122 0 4.445-29.725 10.2-66.348s10.517-66.3 10.648-66.279-4.445 29.716-10.2 66.348-10.527 66.331-10.648 66.279z"/><path d="M308.174 226.413c4.28-1.9 6.959-6.35 8.064-10.9s.931-9.3 1.1-13.988.722-9.517 3.114-13.545c1.418-2.375 3.41-4.35 4.985-6.637s2.74-5.072 2.157-7.829l-26.776.139z"/><path class="e" d="M197.156 260.488a1.417 1.417 0 01-.261.313l-.8.87c-.7.722-1.74 1.74-3.045 3.01-2.61 2.505-6.237 5.915-10.369 9.569s-7.96 6.837-10.77 9.1c-1.409 1.131-2.558 2.036-3.358 2.61l-.931.7a1.288 1.288 0 01-.348.218 3.427 3.427 0 01.287-.287l.87-.766 3.262-2.758c2.766-2.323 6.559-5.55 10.682-9.186s7.829-7.011 10.439-9.456l3.14-2.9.87-.774a1.672 1.672 0 01.331-.261z"/><path class="e" d="M195.147 287.22a10.266 10.266 0 01-1.035-1.044l-2.723-2.906c-2.349-2.5-5.5-5.854-8.969-9.569l-9.064-9.482-2.749-2.879a10.489 10.489 0 01-.966-1.1 8.114 8.114 0 011.1.974c.679.644 1.653 1.592 2.845 2.775 2.384 2.366 5.637 5.681 9.16 9.4s6.655 7.151 8.882 9.665a162.907 162.907 0 012.61 2.993 8.047 8.047 0 01.913 1.166z"/><path class="g" d="M204.438 268.482s.087-.226.27-.67a11.028 11.028 0 011.044-1.836 13.232 13.232 0 016.455-4.811 13.683 13.683 0 015.82-.766 15.214 15.214 0 016.611 2.253 17.659 17.659 0 015.7 5.654 14.788 14.788 0 012.375 8.638 9.882 9.882 0 01-1.488 4.645 11.848 11.848 0 01-3.584 3.619 17.285 17.285 0 01-10.335 2.705 17.85 17.85 0 01-5.567-1.209 13.257 13.257 0 01-4.871-3.306 11.368 11.368 0 01-1.688-2.531 11.039 11.039 0 01-.87-2.94 14.057 14.057 0 01.531-6.2 17.076 17.076 0 018.055-9.787 14.867 14.867 0 0113.092-.6 13.728 13.728 0 015.489 4.2 13.171 13.171 0 012.61 6.516 12.744 12.744 0 01-1.122 7.029 11.8 11.8 0 01-2.07 2.992 14.146 14.146 0 01-2.871 2.253 17.616 17.616 0 01-14 1.3 15.98 15.98 0 01-6.089-3.48 11.2 11.2 0 01-3.384-6.011 9.908 9.908 0 01.913-6.7 8.317 8.317 0 012.21-2.61 10.369 10.369 0 012.958-1.557 18.572 18.572 0 016.472-.87 24.652 24.652 0 016.315.87 13.4 13.4 0 015.489 2.94 9.856 9.856 0 012.94 5.272 11.465 11.465 0 01-.339 5.872 12.179 12.179 0 01-3.036 4.828 14.954 14.954 0 01-9.752 4.245 13.049 13.049 0 01-5.045-.731 10.3 10.3 0 01-4.071-2.688 11.022 11.022 0 01-2.357-4.01 11.7 11.7 0 01-.635-4.35 11.553 11.553 0 013.08-7.342 13.736 13.736 0 015.855-3.784 13.449 13.449 0 015.846-.557 15.736 15.736 0 017.49 3.019 14.547 14.547 0 011.609 1.374c.339.339.5.522.5.522s-.191-.165-.531-.487a17.022 17.022 0 00-1.635-1.34 15.885 15.885 0 00-7.455-2.914 13.379 13.379 0 00-11.492 4.35 11.248 11.248 0 00-2.984 7.177 11.491 11.491 0 00.635 4.263 10.777 10.777 0 002.305 3.889 10.065 10.065 0 003.949 2.61 12.883 12.883 0 004.915.7 14.588 14.588 0 009.508-4.167 11.788 11.788 0 002.932-4.671 11.082 11.082 0 00.313-5.672 9.5 9.5 0 00-2.827-5.063 13.135 13.135 0 00-5.324-2.836 24.55 24.55 0 00-6.211-.87 18.345 18.345 0 00-6.316.87 8.577 8.577 0 00-4.924 3.923 9.49 9.49 0 00-.87 6.4 10.717 10.717 0 003.262 5.767 15.432 15.432 0 005.915 3.41 17.129 17.129 0 0013.623-1.27 13.207 13.207 0 002.775-2.175 11.4 11.4 0 001.992-2.871 12.275 12.275 0 001.087-6.785 12.744 12.744 0 00-2.5-6.3 13.284 13.284 0 00-5.306-4.063 14.414 14.414 0 00-12.709.574 16.641 16.641 0 00-7.829 9.526 13.778 13.778 0 00-.531 6.02 10.665 10.665 0 00.87 2.836 11.194 11.194 0 001.618 2.436 12.84 12.84 0 004.715 3.2 17.545 17.545 0 005.446 1.2 16.963 16.963 0 0010.126-2.61 10.439 10.439 0 004.95-8 14.51 14.51 0 00-2.305-8.456 17.4 17.4 0 00-5.585-5.594 15.05 15.05 0 00-6.5-2.253 13.728 13.728 0 00-12.179 5.411 11.034 11.034 0 00-1.079 1.809 5.311 5.311 0 00-.399.626z"/><path class="e" d="M228.003 292.501c.078.1-6.82 5.994-15.415 13.179s-15.658 12.918-15.711 12.822 6.82-5.994 15.415-13.17 15.633-12.927 15.711-12.831z"/><path class="e" d="M229.509 317.728a8.02 8.02 0 01-1.157-.826l-3.062-2.384c-2.566-2.036-6.089-4.872-9.969-8.021s-7.368-6.02-9.882-8.116l-2.966-2.505a7.9 7.9 0 01-1.044-.957 8.7 8.7 0 011.157.826l3.053 2.384c2.566 2.036 6.089 4.871 9.969 8.021s7.368 6.02 9.891 8.116l2.958 2.5a9.908 9.908 0 011.053.966zm71.115-24.888c.07.1-6.524 5.15-14.745 11.309s-14.936 11.022-15.015 10.917 6.524-5.15 14.745-11.309 14.936-11.022 15.015-10.917z"/><path class="e" d="M303.181 314.241c-.061.1-7.072-4.236-15.658-9.708s-15.467-9.978-15.406-10.091 7.072 4.245 15.658 9.708 15.511 9.985 15.406 10.091z"/><path class="g" d="M229.135 356.491c-.1-.087 6.759-7.272 15.3-16.032s15.545-15.815 15.658-15.728-6.759 7.272-15.3 16.041-15.571 15.806-15.658 15.719z"/><path class="g" d="M258.112 356.483a2.68 2.68 0 01-.287-.3l-.731-.87c-.679-.87-1.583-1.992-2.688-3.367-2.27-2.836-5.489-6.69-9.221-10.787s-7.272-7.655-9.882-10.178l-3.1-3.045-.87-.818a1.9 1.9 0 01-.27-.3 2.248 2.248 0 01.331.235l.87.757a123 123 0 013.21 2.879c2.662 2.471 6.246 6 10 10.108s6.959 8 9.134 10.891a120.17 120.17 0 012.61 3.48l.67.957a1.741 1.741 0 01.226.365z"/><path class="d" d="M186.9 319.894s.278 21.374-5.115 34.17l-32.874-5.6s9.9-20.252 7.2-31.508z"/><path class="g" d="M186.892 319.094s-4.123 26.237-6.646 34.066l-32.674-6.49s6.724-25.367 6.637-32.43z"/><path class="c" d="M157.523 326.001c0 .122 4.854 1.253 10.9 2.523s10.961 2.2 10.987 2.088-4.854-1.253-10.9-2.523-10.961-2.209-10.987-2.088zm-.835 5.559c0 .122 4.854 1.244 10.9 2.523s10.961 2.2 10.987 2.088-4.854-1.253-10.9-2.523-10.961-2.236-10.987-2.088zm4.802 6.289a7.674 7.674 0 001.74.522c1.122.27 2.679.626 4.393.992s3.288.661 4.428.87a7.527 7.527 0 001.862.226 8.4 8.4 0 00-1.8-.531c-1.113-.278-2.671-.635-4.393-.992s-3.288-.67-4.419-.87a7.56 7.56 0 00-1.811-.217z"/><path class="d" d="M342.432 259.879s3.367 20.826-.043 34.109l-32.917-.7s6.733-21.208 2.462-31.813z"/><path class="f" d="M342.284 259.096s-.217 26.193-1.548 34.188l-32.857-1.558s2.879-25.749 1.74-32.63z"/><path class="c" d="M314.281 270.753c0 .122 4.941.226 11.039.235s11.048-.078 11.048-.2-4.941-.226-11.048-.235-11.039.078-11.039.2zm.314 5.541c0 .122 4.941.226 11.039.235s11.048-.078 11.048-.2-4.941-.226-11.048-.235-11.039.078-11.039.2zm5.889 5.106a7.611 7.611 0 001.844.165c1.14 0 2.714.061 4.454.07s3.306 0 4.445-.061a7.714 7.714 0 001.844-.148 7.394 7.394 0 00-1.844-.157c-1.14-.043-2.705-.07-4.445-.078s-3.314 0-4.454.061a7.717 7.717 0 00-1.844.148z"/><path class="e" d="M349.391 199.829c-6.142 0-12.327-3.854-15.58-9.917a29.577 29.577 0 01-2.775-19.66c1.8-8.7 7.56-15.832 14.675-18.112 6.046-1.94 16.85-.87 21.948 7.664a25.741 25.741 0 013.48 13.771 2.616 2.616 0 11-5.219-.348 21 21 0 00-2.8-10.743c-3.932-6.568-12.553-6.437-15.876-5.376-6.089 1.949-9.987 8.534-11.161 14.2a24.271 24.271 0 002.27 16.146c2.566 4.785 7.76 7.76 12.361 7.055a2.61 2.61 0 11.792 5.159 14.013 14.013 0 01-2.115.161zm-168.485 0c-6.15 0-12.327-3.854-15.58-9.917a29.577 29.577 0 01-2.784-19.66c1.522-7.342 6.672-15.8 14.788-18.129a19.138 19.138 0 0111.848.6l-1.879 4.871a14.032 14.032 0 00-8.525-.461c-5.985 1.74-9.882 8.369-11.083 14.171a24.271 24.271 0 002.27 16.146c2.566 4.793 7.768 7.76 12.361 7.055l.792 5.159a14.09 14.09 0 01-2.21.165z"/><path class="g" d="M347.242 173.706l-2.4 13.144h35.329l3.14-13.014z"/><path class="e" d="M189.858 197.75a5.62 5.62 0 11-5.611-5.611 5.62 5.62 0 015.611 5.611zm168.336 0a5.62 5.62 0 11-5.611-5.611 5.62 5.62 0 015.611 5.611z"/><path class="k" d="M265.489 88.985l-9.238 35.04-31.891 3.427v5.654l44.809 1.575 8.421-39.311z"/><path class="e" d="M278.928 135.613s-49.829-2.375-64.017 8.7-7.316 29.255-7.316 29.255l80.188-.209 7.081-40.651z"/><path class="f" d="M287.41 162.432a3.725 3.725 0 01-.722-.052c-.47-.052-1.157-.122-2.044-.235-1.74-.217-4.35-.583-7.481-1.113a213.347 213.347 0 01-24.358-5.628c-4.68-1.383-9.108-2.775-13.2-3.793a57.794 57.794 0 00-11.022-1.74 33.109 33.109 0 00-7.507.435c-.87.1-1.54.331-2.01.409a6.089 6.089 0 01-.7.13 3.607 3.607 0 01.687-.217 17.686 17.686 0 011.992-.5 31.038 31.038 0 017.551-.583 56.735 56.735 0 0111.189 1.668c4.115.992 8.551 2.384 13.214 3.767a238.4 238.4 0 0024.186 5.733c3.14.574 5.689.983 7.455 1.261l2.036.322a4.454 4.454 0 01.734.136zm-46.311-11.092a33.056 33.056 0 00-4.41-3.071 33.422 33.422 0 00-5.037-1.879 4.35 4.35 0 011.592.157 14.413 14.413 0 013.654 1.322 14.641 14.641 0 013.167 2.253 4.349 4.349 0 011.035 1.218z"/><path class="g" d="M284.209 243.925l.67 20.939-4.21 16.72a2.14 2.14 0 001.74 2.61 2.14 2.14 0 001.879-.574c3.167-3.1 14.788-14.545 14.641-16.067-.157-1.74.757-22.148.757-22.148z"/><g class="l"><path class="c" d="M282.33 284.228l16.528-18.059v.87a3.219 3.219 0 01-.748 2.105c-1.314 1.575-5.046 5.846-13.823 14.493a2.14 2.14 0 01-1.94.574z"/></g><g class="l"><path class="c" d="M294.474 259.444a1.3 1.3 0 00-.339 1.74 1.253 1.253 0 001.679.348 1.357 1.357 0 00.348-1.8 1.287 1.287 0 00-1.783-.174"/></g><path class="e" d="M287.036 275.024c-.122.061-.609-1.026-1.853-1.609a6.3 6.3 0 00-2.418-.435c0-.052.244-.217.731-.3a3.4 3.4 0 013.306 1.592c.243.426.278.735.234.752zm-1.47 2.827a16.458 16.458 0 00-1.862-.87 18.345 18.345 0 00-2.053-.244 2.366 2.366 0 012.175-.2c1.235.331 1.844 1.253 1.74 1.314zm4.21-6.463a21.89 21.89 0 00-2.784-1.557 20.77 20.77 0 00-3.114-.7 5.837 5.837 0 015.9 2.253zm.331-6.368c-.052.13-1.218-.348-2.723-.383s-2.7.331-2.749.2a5.35 5.35 0 015.472.183zm-.043-6.15a10.5 10.5 0 00-2.827-.478 10.274 10.274 0 00-2.766.722 1.579 1.579 0 01.67-.592 4.663 4.663 0 014.228-.183c.477.235.731.479.695.531zm-2.802-1.653a1.949 1.949 0 010-.792 5.472 5.472 0 01.618-2.079 2.393 2.393 0 011.035-1.174.87.87 0 01.974.183 1.41 1.41 0 01.339.939 3.045 3.045 0 01-2.61 2.836 3.523 3.523 0 01-3.48-1.809 1.218 1.218 0 01-.07-1.018.87.87 0 01.87-.461 3.053 3.053 0 011.392.7 6.325 6.325 0 011.444 1.618 2.174 2.174 0 01.331.722 9.812 9.812 0 00-1.975-2.079 2.827 2.827 0 00-1.218-.583.461.461 0 00-.487.244.87.87 0 00.087.67 3.14 3.14 0 003.027 1.531 2.61 2.61 0 002.27-2.375 1 1 0 00-.209-.661.461.461 0 00-.539-.113 2.236 2.236 0 00-.87.983 8.447 8.447 0 00-.929 2.718z"/><path class="e" d="M294.822 132.706s-21.548 40.738-21.843 47.845 0 72.62 0 72.62h33.352c.87 0 5.872-29.516 4.854-36.31s-4.611-43.313-4.611-43.313h19.19s5.264-5.632 5.074-12.77c-.113-3.941-2.688-12-5.219-16.267-1.644-2.74-12.179-17.085-12.179-17.085z"/><path class="f" d="M293.377 135.465a1.176 1.176 0 01-.1.235c-.078.174-.183.391-.313.661l-1.253 2.54c-.565 1.1-1.235 2.444-2.018 4l-1.253 2.5-1.314 2.845-6.463 14c-1.227 2.61-2.514 5.4-3.854 8.264l-2.027 4.35a23.487 23.487 0 00-1.479 4.68 25.228 25.228 0 00-.513 4.9 311.608 311.608 0 00-.113 4.811c0 3.166-.061 6.211-.052 9.117 0 5.811.07 11.048.13 15.441s.113 7.916.157 10.439v3.819a.739.739 0 010-.252v-.731c0-.687-.07-1.627-.122-2.836-.087-2.453-.2-6.011-.3-10.439s-.2-9.621-.226-15.441v-9.117c0-1.583.052-3.193.113-4.828a25.638 25.638 0 01.513-4.976 23.969 23.969 0 011.514-4.767l2.036-4.35 3.88-8.247 6.603-13.968 1.34-2.836c.461-.87.87-1.74 1.288-2.479l2.079-3.967c.565-1.07 1.018-1.905 1.331-2.505.148-.261.27-.47.357-.644a.383.383 0 00.059-.219z"/><path class="f" d="M286.4 149.339a40.631 40.631 0 01-1.74-5.089 40.141 40.141 0 01-1.488-5.167 25.941 25.941 0 011.914 5.037 26.2 26.2 0 011.314 5.219zm24.855 66.244a1.74 1.74 0 01-.1-.461q-.061-.531-.183-1.331c-.157-1.227-.357-2.9-.609-4.924-.478-4.21-1.122-9.926-1.836-16.241s-1.3-12.1-1.653-16.267c-.165-2.036-.3-3.706-.409-4.932 0-.548-.07-.992-.1-1.348a3.239 3.239 0 010-.47 1.574 1.574 0 01.1.461c.043.357.1.8.174 1.34.139 1.227.331 2.888.557 4.924.461 4.21 1.087 9.934 1.74 16.25s1.27 12.031 1.74 16.25c.191 2.036.357 3.706.47 4.932.043.539.078.992.1 1.348a2.745 2.745 0 01.009.469z"/><path class="e" d="M302.781 23.602c-.513-3.48 2.471-6.829 5.915-7.238a8.744 8.744 0 018.5 4.88 12.683 12.683 0 01.261 10.126c-.87 2.2-2.479 4.428-4.819 4.6s-4.132-1.609-5.681-3.253"/><path class="e" d="M278.293 40.862c-6.959-15.25 9.569-22.913 18.555-20.373 8.456 2.392 12.066 6.6 13.458 12.257a27.906 27.906 0 01-.87 17.172c-1.1 2.662-3.062 5.359-5.915 5.689"/><path class="k" d="M302.237 28.952a2.862 2.862 0 012.566 2.914l-1.627 38.815c-.061 4.584-6.751 7.177-11.665 7.072-4.95-.1-5.115-2.54-5.219-6.9-.113-7.281-.113-10.021-.113-9.978s-6.263-1.044-7.56-9.212c-.652-4.062-.444-10.726-.1-16.172.313-4.9 3.558-10.917 8.447-10.439z"/><path class="e" d="M281.721 40.14a1.044 1.044 0 001.009 1.061 1 1 0 001.079-.948 1.053 1.053 0 00-1.009-1.061 1 1 0 00-1.079.948zm-1.731-1.175c.13.13.931-.452 2.053-.452s1.957.565 2.079.426-.07-.3-.435-.565a2.9 2.9 0 00-1.662-.513 2.679 2.679 0 00-1.627.531c-.347.26-.469.512-.408.573zm12.752 1.174a1.053 1.053 0 00.974 1.061 1 1 0 001.079-.948 1.053 1.053 0 00-1.009-1.061 1 1 0 00-1.044.948z"/><path class="e" d="M291.107 39.174c.13.13.922-.452 2.044-.452s1.957.565 2.079.435-.07-.313-.435-.574a2.87 2.87 0 00-1.662-.513 2.758 2.758 0 00-1.627.531c-.399.26-.494.521-.399.573zm-4.124 8.36a7.759 7.759 0 00-1.827-.331c-.287 0-.565-.087-.609-.278a1.478 1.478 0 01.191-.87c.27-.7.548-1.427.87-2.192a38.144 38.144 0 001.914-5.733 37.051 37.051 0 00-2.374 5.567l-.818 2.21a1.679 1.679 0 00-.148 1.131.731.731 0 00.478.418 2.113 2.113 0 00.487.07 7.429 7.429 0 001.836.008z"/><path class="m" d="M286.209 60.869a20.747 20.747 0 0010.987-2.914s-2.662 5.62-10.839 4.854zm1.253-10.621a2.036 2.036 0 011.818-.748 1.844 1.844 0 011.288.687 1.174 1.174 0 01.087 1.34 1.357 1.357 0 01-1.479.374 4.167 4.167 0 01-1.444-.87 1.288 1.288 0 01-.322-.331.383.383 0 010-.418"/><path class="e" d="M290.307 48.317c-.183 0-.191 1.209-1.235 2.079a5.655 5.655 0 01-2.357.87c-.009.139.287.235.87.252a3.08 3.08 0 001.975-.687 2.68 2.68 0 00.957-1.74c.007-.478-.132-.783-.21-.774zm.26-11.118c.113.3 1.244.157 2.566.322s2.392.513 2.566.244c.078-.13-.113-.418-.539-.722a4.289 4.289 0 00-1.905-.661 4.219 4.219 0 00-2 .235c-.488.19-.731.434-.688.582zm-10.156-1.505c.2.261.974 0 1.914 0s1.74.174 1.905-.1c.078-.13 0-.391-.391-.626a2.61 2.61 0 00-1.548-.426 2.679 2.679 0 00-1.522.513c-.336.256-.449.517-.358.639z"/><path class="e" d="M291.048 22.376a16.528 16.528 0 00-7.829 2.436 11.361 11.361 0 00-5.6 6.655 2.331 2.331 0 00.07 1.844 1.792 1.792 0 002.236.478 5.107 5.107 0 001.827-1.679 3.48 3.48 0 006.785-.078 3.053 3.053 0 003.149 2.81 4.036 4.036 0 003.48-2.74 10.107 10.107 0 001.435 3.984 3.48 3.48 0 003.7 1.514 7.307 7.307 0 00.052 3.654c.435 1.148 2.166 20.8 3.332 20.4s1.122-20.443 1.383-21.609a27.274 27.274 0 00.87-6.846 10.03 10.03 0 00-8.09-10.169 26.734 26.734 0 00-7.116-.652"/><path class="e" d="M307.419 58.164a1.233 1.233 0 01-.252.113 3.418 3.418 0 01-.757.183 6.437 6.437 0 01-6.237-2.923 8.429 8.429 0 01-1.07-5.115c.13-1.87.565-3.575.766-5.141a39.143 39.143 0 00.365-4.193v-2.845a4.851 4.851 0 010-1.044 4.4 4.4 0 01.183 1.053 28.063 28.063 0 01.139 2.862 34.024 34.024 0 01-.27 4.236c-.191 1.6-.6 3.314-.731 5.115a8.212 8.212 0 00.974 4.872 6.02 6.02 0 003.114 2.549 6.55 6.55 0 002.74.418c.67-.044 1.026-.184 1.036-.14z"/><path class="f" d="M288.167 21.323a3.7 3.7 0 01.426 1.94 6.237 6.237 0 01-6.089 6.35 3.68 3.68 0 01-1.949-.348 18.8 18.8 0 001.931 0 6.246 6.246 0 005.82-6.037c.026-1.157-.221-1.888-.139-1.905zm1.2 9.622c.043 0-.061.557-.687 1.166a4.15 4.15 0 01-3.079 1.053 6.794 6.794 0 01-3.071-1.053c-.7-.444-1.087-.783-1.053-.87a5.368 5.368 0 011.2.548 8.038 8.038 0 002.949.87 4.271 4.271 0 002.845-.87 4.933 4.933 0 00.896-.844zm19.707-2.497a7.636 7.636 0 01-.157 2.236 11.239 11.239 0 01-2 5.037 6.794 6.794 0 01-4.68 2.662 4.445 4.445 0 01-1.663-.165c-.374-.113-.557-.226-.548-.252a8.2 8.2 0 002.175.1 6.846 6.846 0 004.35-2.61 12.309 12.309 0 002.044-4.819 18.076 18.076 0 01.478-2.183z"/><path class="f" d="M310.567 32.406a2.254 2.254 0 01.13.7 13.709 13.709 0 01.043 1.905 9.517 9.517 0 01-2.175 5.854 6.585 6.585 0 01-2.9 1.975 5.672 5.672 0 01-2.862.174 4.671 4.671 0 01-1.783-.748c-.365-.27-.522-.47-.5-.487a6.62 6.62 0 002.34.922 5.715 5.715 0 002.671-.252 6.516 6.516 0 002.7-1.879 9.934 9.934 0 002.2-5.585c.136-1.579.058-2.57.136-2.579zM195.905 137.552l-15.789 36.11h21.739l15.484-36.4z"/><path class="a" d="M184.421 99.145l17.807 35.023h56.166l-2.27-4.576-16.267-.487-13.266-29.525a5.106 5.106 0 00-4.663-3.019h-35.924a1.74 1.74 0 00-1.583 2.584z"/><path class="e" d="M212.545 114.848a2.149 2.149 0 11-2.149-2.149 2.149 2.149 0 012.149 2.149z"/><path class="f" d="M195.721 134.238h68.653v3.349h-68.653z"/><path class="f" d="M243.227 135.917l20.887 37.78h9.987l2.175-4.323 2-4.55-13.9-27.237z"/><path class="g" d="M279.519 71.143s-12.127 4.271-14.736 17.842l12.805 6.385z"/><path class="g" d="M279.519 71.143s-8.482 19.016-8.16 29.4c.113 3.61 2.479 13.049 2.479 13.049l4.41 23.366s33.761-4.567 34.509-4.567-1.131-19.182-1.131-19.182l5.507-36.858s-2.523-5.019-13.919-6.759c-6.827-1.067-23.695 1.551-23.695 1.551z"/><path class="e" d="M276.319 82.182c.078.044-.809 1.461-1.879 3.915a34.934 34.934 0 00-1.566 4.419 38.4 38.4 0 00-1.1 5.628 39.364 39.364 0 00-.183 5.733 35.169 35.169 0 00.548 4.654c.487 2.61 1.044 4.21.957 4.236a5.627 5.627 0 01-.439-1.085 13.689 13.689 0 01-.4-1.314c-.139-.522-.322-1.1-.444-1.74a33.168 33.168 0 01-.644-4.7 36.77 36.77 0 01.148-5.811 36.011 36.011 0 011.157-5.7 31.32 31.32 0 011.679-4.428 17.607 17.607 0 01.818-1.627 13.058 13.058 0 01.687-1.192 5.873 5.873 0 01.661-.992z"/><path class="g" d="M283.626 70.97l.487-5.219a2.218 2.218 0 012.175-2l16.659-.252a1.992 1.992 0 012.009 1.836l.426 5.628a14.388 14.388 0 01-6.69 6.785c-4.9 2.375-12.509 2.453-12.509 2.453z"/><path class="e" d="M287.984 63.792c.052 0-.191.339-.3.87a9.507 9.507 0 000 2.314 13.048 13.048 0 010 3.375 12.7 12.7 0 01-.452-3.349 6.524 6.524 0 01.1-2.418c.295-.6.626-.835.652-.792zm3.993 6.455a11.851 11.851 0 01-.418-3.271 14.236 14.236 0 010-2.349c.087-.626.339-.948.391-.87s-.078.365-.07.94.1 1.392.1 2.262a12.369 12.369 0 010 3.288zm5.001-.139a11.828 11.828 0 01-.652-3.149 11.833 11.833 0 01-.2-3.236 11.71 11.71 0 01.652 3.175 11.891 11.891 0 01.2 3.21zm4.315.331a10.873 10.873 0 01-.626-3.48 10.847 10.847 0 01.087-3.558 19.133 19.133 0 01.365 3.48 19.042 19.042 0 01.174 3.558z"/><path d="M304.6 90.368c-.67 5.854-.226 15.945 1.844 21.469l9.726-16.067z"/><path class="g" d="M316.23 75.145l.052.052a24.81 24.81 0 015.881 10.256l1.792 8.168-19.138 2.958a23.827 23.827 0 01-.731-10.7c.94-6.158 12.144-10.734 12.144-10.734z"/><path class="e" d="M323.957 93.625a2.1 2.1 0 01-.383.1l-1.1.2-4.1.67-13.866 2.105h-.244v-.252a185.664 185.664 0 01-.1-3.593c-.043-3.21 0-6.281.191-9.073a14.789 14.789 0 012.227-7.055 10.5 10.5 0 013.567-3.48 6.743 6.743 0 011.235-.574 1.574 1.574 0 01.452-.13 10.07 10.07 0 00-1.6.87 10.665 10.665 0 00-3.384 3.48 14.884 14.884 0 00-2.088 6.959c-.2 2.766-.191 5.828-.139 9.038 0 1.218.061 2.427.087 3.575l-.252-.217 13.919-1.957 4.115-.531 1.113-.13a1.35 1.35 0 01.35-.005z"/><path class="h" d="M283.53 81.626a12.822 12.822 0 01-2.662-2.062 12.484 12.484 0 01-2.366-2.4 25.228 25.228 0 015.028 4.462zm-2.583 10.064a9.186 9.186 0 01-2.34 1.74 9.63 9.63 0 01-2.61 1.34 18.877 18.877 0 014.932-3.062zm10.674 2.48a15 15 0 010-3.723 15.909 15.909 0 01.452-3.688 15.192 15.192 0 010 3.715 15.658 15.658 0 01-.452 3.696zm10.377 10.064a25.55 25.55 0 01-2.418-2.61 26.2 26.2 0 01-2.392-2.61 9.8 9.8 0 012.723 2.34 10.1 10.1 0 012.087 2.88zm1.458-21.043a11.482 11.482 0 01-2.531 1.983 11.9 11.9 0 01-2.792 1.6 11.415 11.415 0 012.54-1.983 12.179 12.179 0 012.784-1.6zm-9.374-7.611a12.771 12.771 0 01-2.766 2.044 13.2 13.2 0 01-3.01 1.67 12.955 12.955 0 012.766-2.053 13.788 13.788 0 013.01-1.662zm8.455 3.027a18.99 18.99 0 01-2.192-5.637 10.082 10.082 0 011.322 2.74 10.136 10.136 0 01.87 2.897zm11.632 3.819a14.24 14.24 0 01-3.567-3.558 7.22 7.22 0 011.94 1.618 7.02 7.02 0 011.627 1.94zm-4.794 8.481a7.874 7.874 0 01-.374-2.662 7.749 7.749 0 01.078-2.679 15.884 15.884 0 01.296 5.341zm9.665-1.757a7.968 7.968 0 01-3.045-.1 8.151 8.151 0 01-2.932-.809 13.693 13.693 0 013 .365 14.2 14.2 0 012.977.544zm-38.973 17.529a14.6 14.6 0 01-1.74-3.175 14.789 14.789 0 01-1.34-3.367 29.569 29.569 0 013.079 6.542zm12.78 13.728a12.04 12.04 0 01-2.114-2.531 12.753 12.753 0 01-1.74-2.8 22.89 22.89 0 013.854 5.333zm10.561-5.76a11.56 11.56 0 01-2.888 1.357 11.039 11.039 0 01-3.053.931 22.279 22.279 0 015.941-2.288zm-26.02 11.118a14.415 14.415 0 012.079-4.593 7.28 7.28 0 01-.87 2.392 7.184 7.184 0 01-1.209 2.2zm-8.186-39.312a4.106 4.106 0 01-.87-2.218 4.028 4.028 0 01.1-2.375 14.081 14.081 0 01.348 2.3 14.41 14.41 0 01.418 2.3zm14.537 30.508a8.7 8.7 0 01-2.61-1.174 8.995 8.995 0 01-2.366-1.566 8.934 8.934 0 012.61 1.174 9.447 9.447 0 012.366 1.566zm8.395-14.492a24.026 24.026 0 01-4.924 4.463 12.448 12.448 0 012.314-2.4 12.224 12.224 0 012.61-2.062z"/><path d="M286.992 102.199a14.789 14.789 0 003.871 8.09c2.175 2.123 5.541 3.193 8.369 2.088a1.992 1.992 0 001.348-1.253 1.618 1.618 0 00-1.087-1.74 6.576 6.576 0 00-2.184-.313 12.405 12.405 0 01-10.143-6.559"/><path class="e" d="M298.301 109.211a2.7 2.7 0 01-.583.1 8.046 8.046 0 01-1.618 0 10.334 10.334 0 01-2.34-.557 11.309 11.309 0 01-4.8-3.332 10.326 10.326 0 01-1.331-2 7.176 7.176 0 01-.6-1.5 1.783 1.783 0 01-.113-.583c.087 0 .322.783.992 1.931a11.735 11.735 0 001.366 1.879 13.05 13.05 0 002.131 1.888 13.249 13.249 0 002.505 1.331 11.457 11.457 0 002.236.626c1.311.191 2.155.13 2.155.217z"/><path class="k" d="M250.412 123.233l12.6-1.47 8.882 5.82 33.927-8.142.8-23.244 15.076-1.983v28.142a12.91 12.91 0 01-13.188 12.588l-49.724-1.383-2.114-4.228-10.674-.322z"/><path class="m" d="M305.421 119.397a4.346 4.346 0 01-.644.2l-1.844.478-6.811 1.688-22.518 5.454-2.1.5h-.157l-8.873-5.837h.122l-12.605 1.461.087-.052-3.34 4.236-.87 1.113a2.282 2.282 0 01-.331.365 3.765 3.765 0 01.27-.409l.87-1.148 3.236-4.3h.052l12.588-1.575h.122l8.89 5.811h-.157l2.1-.5 22.539-5.341 6.846-1.575 1.862-.409a4.348 4.348 0 01.661-.165z"/><path class="m" d="M257.294 126.843a31.693 31.693 0 01-4.9.191h-.87l.122-.043a22.5 22.5 0 01-3.175 2.436 24.093 24.093 0 012.923-2.732l.052-.052h.966a29.792 29.792 0 014.882.2zm54.378-3.645a9.291 9.291 0 00-2.479-2.61 9.1 9.1 0 00-3.4-1.113 2.184 2.184 0 011.1-.087 5.8 5.8 0 014.35 2.758 2.2 2.2 0 01.435 1.053z"/><path class="e" d="M37.31 309.029h56.805v7.803H37.31z"/><path class="e" d="M94.211 316.937h-57v-8h57zm-56.805-.2H94.02v-7.612H37.405z"/><path class="e" d="M42.582 314.24l8.168 40.338h30.256l7.908-37.737z"/><path class="f" d="M42.582 350.759l4.358 6h36.771l5.2-6z"/><path class="e" d="M63.584 315.414c-.113 0-.252-18.686-.322-41.756s0-41.756.087-41.756.252 18.686.322 41.756.024 41.756-.087 41.756zm12.655-46.766a2.366 2.366 0 01-.157.435c-.13.322-.3.722-.5 1.209-.113.27-.235.557-.374.87s-.244.687-.374 1.061l-.444 1.218c-.148.435-.27.87-.418 1.392a57.24 57.24 0 00-1.592 6.959 86.417 86.417 0 00-.87 8.7 118.314 118.314 0 00.452 15.885c.183 2.036.365 3.671.5 4.8.052.531.1.966.139 1.3a3.027 3.027 0 010 .461 1.741 1.741 0 01-.1-.452c-.061-.339-.13-.766-.217-1.287a91.03 91.03 0 01-.635-4.793 105.154 105.154 0 01-.565-15.937 79.707 79.707 0 01.87-8.743 52.112 52.112 0 011.688-6.959c.157-.487.287-.957.444-1.383l.47-1.218.418-1.053c.139-.322.278-.6.4-.87l.583-1.183a1.6 1.6 0 01.287-.418z"/><path class="e" d="M74.786 253.538a5.219 5.219 0 01-.183.618c-.148.426-.348 1.009-.592 1.74l-.435 1.253c-.139.47-.3.974-.461 1.514-.331 1.079-.713 2.305-1.053 3.688l-.574 2.166c-.174.757-.348 1.548-.531 2.357-.4 1.627-.687 3.393-1.053 5.219-.626 3.706-1.174 7.829-1.557 12.135s-.513 8.473-.565 12.24 0 7.159.191 10c.044 1.427.139 2.705.209 3.836s.139 2.105.209 2.9.1 1.374.139 1.836a5.788 5.788 0 010 .635 3.138 3.138 0 01-.1-.626c-.052-.461-.122-1.061-.217-1.827s-.191-1.74-.278-2.9-.2-2.41-.27-3.836c-.191-2.853-.27-6.246-.278-10.021s.174-7.925.539-12.266.948-8.456 1.592-12.179c.374-1.853.679-3.619 1.087-5.219.191-.818.383-1.609.557-2.366l.6-2.157c.357-1.383.766-2.61 1.122-3.688.174-.539.339-1.035.487-1.5s.322-.87.47-1.244l.661-1.74a2.82 2.82 0 01.284-.568zM59.989 318.72a.87.87 0 010-.217 3.147 3.147 0 00-.052-.644c-.044-.592-.1-1.418-.165-2.471-.139-2.184-.331-5.28-.574-9.108-.487-7.681-1.2-18.268-2.5-29.968a368.84 368.84 0 00-2.227-16.415c-.418-2.505-.8-4.889-1.244-7.116s-.87-4.289-1.218-6.176-.792-3.575-1.131-5.063-.644-2.775-.87-3.819-.444-1.827-.592-2.41a21.99 21.99 0 00-.139-.626.592.592 0 010-.217.792.792 0 01.078.209l.174.618c.165.574.383 1.374.67 2.392s.626 2.305.983 3.8.792 3.175 1.183 5.063.87 3.941 1.27 6.168.87 4.611 1.287 7.125a344.226 344.226 0 012.253 16.415c1.3 11.692 1.966 22.313 2.384 30 .209 3.854.357 6.959.444 9.117 0 1.053.07 1.879.087 2.479v.644a.809.809 0 01-.1.217z"/><path class="g" d="M63.121 240.94c-.252-2.61-2.923-4.645-5.585-4.671a8.777 8.777 0 00-6.763 3.671 21.261 21.261 0 00-3.262 7.229 49.069 49.069 0 00-2 19.234 29.062 29.062 0 008 17.337 3.254 3.254 0 002.758 1.261 3.349 3.349 0 001.453-.87 43.061 43.061 0 0013.971-32.752 13.328 13.328 0 00-1.74-7.038c-1.348-2.036-4.524-4.21-6.829-3.393M43.26 219.715l-3.741 6.785c-.087.157-.2.339-.383.348s-.348-.165-.452-.331l-9.9-15.154 2.279-1.3z"/><path d="M43.26 219.715l-3.741 6.785c-.087.157-.2.339-.383.348s-.348-.165-.452-.331l-9.9-15.154 2.279-1.3z"/><path class="g" d="M63.351 231.938l-33.77-19.93a1.566 1.566 0 01-.87-.826c-.13-.5.244-.983.6-1.357a23.314 23.314 0 0118.051-7.09 20.626 20.626 0 0116.32 10.152c3.253 5.82 3.367 13.527-.374 19.051"/><path class="e" d="M34.483 205.649a1.469 1.469 0 01.444-.052c.287 0 .722-.07 1.279-.061a25.725 25.725 0 014.68.365 28.047 28.047 0 016.681 2.027 27.385 27.385 0 0115.18 17.755 24.854 24.854 0 01.87 4.628c.07.548.052.983.07 1.279a2.192 2.192 0 010 .444s-.078-.609-.217-1.74a28.933 28.933 0 00-.948-4.567 27.585 27.585 0 00-21.639-19.574 28.707 28.707 0 00-4.637-.5 15.687 15.687 0 01-1.763-.004z"/><path class="e" d="M58.775 218.185a7.433 7.433 0 01-1.74.774c-1.079.426-2.61.966-4.263 1.5s-3.219.957-4.35 1.235a8.544 8.544 0 01-1.844.348 8.836 8.836 0 011.74-.626l4.3-1.348 4.289-1.383a9.776 9.776 0 011.87-.5zm-5.318-14.284a14.093 14.093 0 01.4 3.767 14.24 14.24 0 01-.209 3.784 74.6 74.6 0 01-.191-7.551zm-24.194 7.733a14.556 14.556 0 012.453-.87c1.531-.478 3.671-1.079 6.089-1.653s4.558-1.009 6.089-1.287a15.114 15.114 0 012.61-.348 19.224 19.224 0 01-2.523.626c-1.566.348-3.723.87-6.089 1.409s-4.515 1.122-6.089 1.522a19.678 19.678 0 01-2.54.601z"/><path class="g" d="M47.779 234.657c-2.905-2.2-5.976-2.61-9.621-2.5a29.307 29.307 0 00-10.53 2.7c-5.7 2.488-11.048 6.168-14.449 11.37s-4.593 12.092-2.044 17.764a2.549 2.549 0 001.157 1.4 2.793 2.793 0 001.905-.148c6.481-2.114 13-4.245 18.955-7.551s11.378-7.907 14.571-13.919a12.092 12.092 0 001.548-4.567 5.768 5.768 0 00-1.488-4.515"/><path class="e" d="M47.827 233.982a2 2 0 01-.461.191l-1.357.47-.983.322c-.357.13-.739.287-1.148.452-.818.331-1.74.661-2.775 1.148l-1.583.722c-.557.252-1.1.565-1.688.87-1.174.574-2.357 1.314-3.628 2.062a57.528 57.528 0 00-14.283 12.553c-.87 1.157-1.783 2.244-2.505 3.34-.374.539-.748 1.044-1.079 1.557l-.87 1.479c-.609.931-1.061 1.836-1.5 2.61-.209.383-.418.739-.592 1.079s-.313.644-.444.931l-.644 1.287a1.8 1.8 0 01-.244.435 2.541 2.541 0 01.174-.47l.565-1.322c.13-.287.27-.6.418-.948s.365-.7.565-1.1c.418-.792.87-1.74 1.444-2.653.3-.478.592-.983.87-1.5s.7-1.026 1.061-1.575c.713-1.113 1.592-2.21 2.488-3.384a60.617 60.617 0 016.646-6.959 59.552 59.552 0 017.742-5.7c1.279-.748 2.479-1.479 3.662-2.044.592-.3 1.148-.6 1.74-.87l1.609-.7c1.018-.478 1.975-.792 2.81-1.1.418-.148.8-.3 1.166-.418l.992-.3 1.383-.391a3.053 3.053 0 01.449-.074zM25.14 246.265a70.055 70.055 0 01-7.064 2.27 64.668 64.668 0 01-7.185 1.888 70.057 70.057 0 017.064-2.27 67.088 67.088 0 017.185-1.888z"/><path class="e" d="M24.848 261.819a12.178 12.178 0 01-.157-2.2v-5.315c0-2.07.174-3.958.287-5.315a10.813 10.813 0 01.278-2.192 13.92 13.92 0 010 2.21c-.052 1.488-.1 3.3-.165 5.306s-.1 3.819-.139 5.306a12.039 12.039 0 01-.104 2.2zm13.36-6.768c-.113 0-.47-3.819-.792-8.543s-.5-8.56-.391-8.56.461 3.81.792 8.534.502 8.561.391 8.569z"/><path class="e" d="M21.582 237.575a11.934 11.934 0 012.262-.07c1.392 0 3.323.052 5.454.122s4.054.157 5.446.235a13.613 13.613 0 012.253.217 11.939 11.939 0 01-2.262.07c-1.392 0-3.323-.043-5.454-.122s-4.054-.157-5.454-.235a13.258 13.258 0 01-2.244-.217zm33.388 47.976a1.739 1.739 0 01-.052-.47 11.173 11.173 0 00-.061-1.322c-.052-1.157-.061-2.819 0-4.889s.174-4.515.418-7.229.644-5.7 1.192-8.8 1.227-6.02 1.914-8.7 1.435-4.985 2.114-6.959 1.253-3.48 1.74-4.576c.209-.5.374-.87.513-1.227a2.443 2.443 0 01.2-.418 1.427 1.427 0 01-.13.444l-.5 1.279c-.4 1.079-.948 2.61-1.583 4.611s-1.331 4.35-2.018 6.959-1.331 5.55-1.888 8.647-.931 6.089-1.209 8.76-.435 5.15-.5 7.2-.113 3.723-.113 4.88v1.322a3.481 3.481 0 01-.037.488z"/><path class="e" d="M56.744 262.507a9.292 9.292 0 01-1.348 1.479c-.87.87-2.114 2.036-3.523 3.28s-2.74 2.314-3.723 3.071a9.314 9.314 0 01-1.635 1.14 10.535 10.535 0 011.461-1.366l3.628-3.149 3.6-3.184a10.48 10.48 0 011.54-1.271zm10.691 8.603A15.785 15.785 0 0166 269.127l-3.332-4.872-3.41-4.819a16.281 16.281 0 01-1.366-2.036 12.848 12.848 0 011.592 1.862c.94 1.192 2.192 2.862 3.48 4.767s2.453 3.654 3.245 4.941a13.167 13.167 0 011.226 2.14zm-5.602-27.08c.061.1-3.48 2.488-7.925 5.341s-8.09 5.1-8.151 5 3.48-2.488 7.934-5.341 8.09-5.087 8.142-5zm10.056 10.83a69.852 69.852 0 01-5.367-4.967 65.967 65.967 0 01-5.089-5.219 66.9 66.9 0 015.376 4.967 63.2 63.2 0 015.08 5.219z"/><path class="g" d="M74.368 254.625l3.045-.252a15.05 15.05 0 006.159-1.888 26.09 26.09 0 012.871-1.444c3.767-1.505 7.977-1.235 12.031-1.444a49.768 49.768 0 0019.138-4.889 1.949 1.949 0 00.87-.757c.626-1.14-.539-2.157-1.54-2.775-5.141-3.167-10.369-6.368-16.189-7.942s-12.44-1.3-17.4 2.114c-5.828 4.019-7.96 12.266-8.943 19.277"/><path class="e" d="M118.508 243.551a5.277 5.277 0 01-.513-.244l-1.444-.757c-1.253-.661-3.053-1.635-5.341-2.723a48.845 48.845 0 00-8.255-3.184 27.185 27.185 0 00-10.709-.87 18.268 18.268 0 00-9.76 4.193 21.7 21.7 0 00-5.08 7.133 58.177 58.177 0 00-2.21 5.559l-.548 1.54a3.251 3.251 0 01-.209.531 2.9 2.9 0 01.13-.557c.122-.391.278-.913.47-1.557a50.9 50.9 0 012.07-5.585 21.53 21.53 0 015.1-7.3 18.434 18.434 0 019.952-4.35 27.376 27.376 0 0110.856.87 48.5 48.5 0 018.29 3.288c2.27 1.131 4.054 2.14 5.289 2.845l1.409.826a2.42 2.42 0 01.503.342z"/><path class="e" d="M111.192 247.509c-.061.087-4.054-2.488-8.908-5.759s-8.743-6-8.7-6.089 4.045 2.488 8.9 5.759 8.769 5.993 8.708 6.089zm-3.828-12.239a15 15 0 01-6.289.583 17.732 17.732 0 013.14-.365 18.27 18.27 0 013.149-.218zm-17.877-3.202a21.975 21.975 0 01-2.966 5.028 10.5 10.5 0 011.3-2.61 10.36 10.36 0 011.662-2.418zm3.567 17.79a10.438 10.438 0 01-1.914-1.044c-1.157-.7-2.714-1.74-4.35-2.932s-3.123-2.349-4.184-3.184a11.631 11.631 0 01-1.653-1.418 11.161 11.161 0 011.827 1.192l4.254 3.088c1.653 1.2 3.175 2.253 4.289 3.019a12.326 12.326 0 011.731 1.279z"/><path class="g" d="M78.848 267.578c-2.906-.774-6.376 2.053-6.959 5s.513 5.959 1.8 8.7a44.366 44.366 0 0012.024 15.738 29.751 29.751 0 0018.364 6.742c-1.227-5.707.322-11.674-.357-17.477a22.739 22.739 0 00-20.138-19.93c-1.853-.2-4-.487-4.741 1.227"/><path class="e" d="M104.075 303.762a2.1 2.1 0 01-.418-.191 8.392 8.392 0 01-1.087-.731 11.378 11.378 0 01-2.871-3.836c-.461-.87-.983-1.879-1.488-2.966s-1.009-2.236-1.566-3.48a31.314 31.314 0 00-1.923-3.7 28.445 28.445 0 00-2.61-3.6c-1.983-2.331-4.123-4.35-5.976-6.289a41.006 41.006 0 01-4.558-5.472 20.094 20.094 0 01-2.227-4.254 15.557 15.557 0 01-.391-1.244 1.739 1.739 0 01-.087-.444s.2.592.626 1.635a22.157 22.157 0 002.314 4.149 43.76 43.76 0 004.593 5.367c1.862 1.914 4.01 3.932 6.02 6.289a28.758 28.758 0 012.671 3.654 33.329 33.329 0 011.923 3.749l1.531 3.48c.487 1.079.992 2.07 1.444 2.966a11.743 11.743 0 002.714 3.854c.835.747 1.41 1.025 1.366 1.064z"/><path class="e" d="M89.052 299.017a8.96 8.96 0 01.27-1.957c.226-1.2.6-2.845 1.1-4.637s1.044-3.384 1.479-4.524a8.246 8.246 0 01.792-1.809 11.1 11.1 0 01-.522 1.9c-.365 1.166-.87 2.766-1.357 4.55s-.87 3.4-1.218 4.584a10.03 10.03 0 01-.544 1.893zm14.491-14.014a12.686 12.686 0 01-2.053-.478c-1.253-.322-2.984-.774-4.906-1.209s-3.68-.766-4.95-1.009a11.773 11.773 0 01-2.053-.452 9.744 9.744 0 012.1.174c1.287.165 3.062.461 4.993.87a48.864 48.864 0 014.9 1.331 10.23 10.23 0 011.969.773zm-25.277 4.071a12.181 12.181 0 01.313-2.27c.261-1.383.661-3.3 1.209-5.376s1.122-3.949 1.575-5.289a12.406 12.406 0 01.87-2.131 14.371 14.371 0 01-.557 2.218c-.383 1.357-.922 3.227-1.461 5.3s-.992 3.976-1.314 5.341a13.487 13.487 0 01-.635 2.207zm18.605-16.285c0 .1-3.645-.183-8.108-.661s-8.081-.948-8.064-1.053a78.894 78.894 0 018.108.652 79.645 79.645 0 018.064 1.061z"/><path class="f" d="M94.211 316.806c0 .113-12.762.2-28.5.2s-28.5-.087-28.5-.2 12.762-.2 28.5-.2 28.5.087 28.5.2zm-8.873 16.416c0 .113-8.6.209-19.208.209s-19.2-.1-19.2-.209 8.595-.2 19.2-.2 19.208.13 19.208.2zm.333 2.348c0 .113-8.595.2-19.2.2s-19.2-.087-19.2-.2 8.595-.2 19.2-.2 19.2.087 19.2.2zm-.003-4.28c0 .113-8.891.2-19.86.2s-19.86-.087-19.86-.2 8.89-.2 19.86-.2 19.86.087 19.86.2z"/></svg>