<svg width="167" height="30" viewBox="0 0 167 30" fill="none" xmlns="http://www.w3.org/2000/svg">
<path d="M158.715 29.8488H155.662L158.568 23.2339L153.375 11.4136H156.432L160.096 19.7557L163.763 11.4136H166.82L158.715 29.8488ZM83.9126 26.1086L86.3546 25.0868C86.6073 25.7465 87.0527 26.315 87.6328 26.7182C88.213 27.1214 88.9011 27.3406 89.6075 27.3475C90.0671 27.3732 90.5268 27.2987 90.9548 27.1293C91.3828 26.9598 91.7688 26.6994 92.0862 26.366C92.4036 26.0326 92.6447 25.6342 92.7929 25.1984C92.9412 24.7626 92.9929 24.2998 92.9446 23.842V22.5926C92.5262 23.1053 91.9928 23.5121 91.3876 23.7799C90.7824 24.0477 90.1226 24.1689 89.4617 24.1337C87.9161 24.1034 86.4417 23.4779 85.3458 22.3875C84.7306 21.7879 84.2431 21.0701 83.9126 20.2772C83.5822 19.4843 83.4156 18.6326 83.423 17.7737C83.4334 16.1264 84.0645 14.5436 85.1905 13.3412C85.7416 12.741 86.4107 12.2611 87.1558 11.9314C87.901 11.6018 88.7062 11.4295 89.521 11.4255C90.1629 11.4092 90.8008 11.531 91.3915 11.7828C91.9822 12.0346 92.5119 12.4104 92.9446 12.8848V11.8096H95.6119V23.2244C95.7178 25.0499 95.0997 26.8436 93.8918 28.2164C93.3294 28.7631 92.6617 29.1897 91.9292 29.4704C91.1968 29.751 90.415 29.8797 89.6312 29.8488C88.4149 29.8613 87.2222 29.5126 86.2042 28.8468C85.1861 28.181 84.3886 27.228 83.9126 26.1086ZM86.2171 17.8104C86.1706 18.2955 86.2262 18.7849 86.3803 19.2472C86.5345 19.7095 86.7837 20.1344 87.1121 20.4944C87.4405 20.8545 87.8406 21.1418 88.2868 21.3378C88.7329 21.5338 89.2152 21.6342 89.7025 21.6324C90.1898 21.6307 90.6713 21.5269 91.1161 21.3277C91.5608 21.1285 91.9589 20.8383 92.2847 20.4759C92.6104 20.1135 92.8567 19.6868 93.0075 19.2235C93.1583 18.7601 93.2104 18.2702 93.1604 17.7855C93.1959 17.3077 93.1359 16.8276 92.9839 16.3732C92.8319 15.9188 92.5908 15.4992 92.2749 15.139C91.9589 14.7788 91.5744 14.4851 91.1437 14.2752C90.713 14.0652 90.2448 13.9432 89.7664 13.9162C89.274 13.9281 88.7891 14.0397 88.341 14.2442C87.8929 14.4487 87.4908 14.7419 87.1591 15.1061C86.8274 15.4702 86.573 15.8978 86.4111 16.363C86.2492 16.8282 86.1832 17.3214 86.2171 17.8128V17.8104ZM15.7022 15.1348L19.8513 19.278L2.3527 28.8542C2.23064 28.9232 2.10341 28.9826 1.97216 29.032L15.7022 15.1348ZM0.139437 27.4447C0.128768 26.0197 0.017334 3.42006 0.0102212 1.72485C-0.0231174 1.42583 0.0254537 1.12338 0.150739 0.849842C0.276025 0.576301 0.473312 0.341961 0.721499 0.17189L15.1024 14.5373L0.784329 29.0284C0.554975 28.8378 0.376147 28.5935 0.263666 28.3173C0.151185 28.041 0.108517 27.7413 0.139437 27.4447ZM37.7186 21.0645C36.8248 20.1613 36.1178 19.0908 35.6378 17.9143C35.1579 16.7377 34.9145 15.4781 34.9215 14.2075C34.9286 12.9368 35.1859 11.68 35.6789 10.5088C36.1718 9.33766 36.8907 8.27511 37.7945 7.38188C39.6086 5.51487 42.0834 4.43514 44.6859 4.37527C47.2884 4.3154 49.8103 5.28019 51.7083 7.0618L49.8258 9.01545C48.5242 7.76083 46.785 7.06262 44.9772 7.06892C43.0713 7.06797 41.2431 7.82419 39.8947 9.17121C38.5464 10.5182 37.7883 12.3457 37.7874 14.2516C37.7864 16.1576 38.5427 17.9858 39.8897 19.3341C41.2367 20.6825 43.0642 21.4405 44.9701 21.4415C47.7216 21.4415 51.0539 20.0308 51.3894 16.0583H44.9535V13.3708H54.0211C54.1383 13.9561 54.1928 14.5522 54.1835 15.149C54.2189 16.3529 54.0066 17.5513 53.5598 18.6698C53.113 19.7883 52.4413 20.8031 51.5862 21.6513C49.8032 23.3015 47.4474 24.1919 45.0187 24.1337C43.6566 24.1464 42.3062 23.8809 41.0503 23.3533C39.7944 22.8258 38.6595 22.0473 37.7151 21.0657L37.7186 21.0645ZM103.998 22.4432C103.372 21.8376 102.878 21.1081 102.55 20.3013C102.221 19.4944 102.064 18.6279 102.089 17.7571C102.044 16.947 102.163 16.1361 102.44 15.3734C102.716 14.6106 103.144 13.9118 103.698 13.3188C104.252 12.7259 104.92 12.2513 105.662 11.9234C106.405 11.5956 107.205 11.4214 108.017 11.4113C109.203 11.4108 110.357 11.798 111.303 12.5138C112.194 13.19 112.884 14.0956 113.3 15.1336L113.742 16.1709L105.224 19.7048C105.489 20.3018 105.928 20.8049 106.483 21.1484C107.039 21.4918 107.685 21.6597 108.338 21.63C108.964 21.6406 109.582 21.4845 110.127 21.1776C110.673 20.8708 111.128 20.4242 111.444 19.8838L113.639 21.3431C113.048 22.208 112.254 22.9146 111.326 23.4009C110.398 23.8872 109.365 24.1384 108.318 24.1325C106.713 24.1447 105.166 23.5404 103.994 22.4444L103.998 22.4432ZM105.635 15.0779C105.323 15.4126 105.086 15.8098 104.94 16.2431C104.794 16.6764 104.741 17.1359 104.786 17.5911L110.476 15.2142C110.255 14.7873 109.915 14.4326 109.499 14.1921C109.082 13.9516 108.605 13.8353 108.124 13.8569C107.647 13.8753 107.179 13.9935 106.75 14.2038C106.322 14.4141 105.942 14.7119 105.635 15.0779ZM71.1546 22.2156C70.0006 21.0059 69.3629 19.3945 69.3764 17.7227C69.3738 16.8873 69.5378 16.0599 69.8587 15.2887C70.1797 14.5175 70.6513 13.818 71.2458 13.2312C71.8403 12.6444 72.5459 12.1821 73.3212 11.8712C74.0966 11.5603 74.9261 11.4072 75.7613 11.4208C77.3523 11.4194 78.8906 11.9904 80.0954 13.0294C80.7646 13.6256 81.2946 14.3616 81.6478 15.1853C82.001 16.0091 82.1687 16.9004 82.1391 17.7962C82.1522 18.6312 81.9974 19.4603 81.6839 20.2343C81.3703 21.0082 80.9044 21.7113 80.3138 22.3017C79.7232 22.8921 79.0199 23.3577 78.2458 23.671C77.4717 23.9843 76.6425 24.1388 75.8076 24.1254C74.9431 24.1385 74.085 23.976 73.2852 23.6477C72.4854 23.3195 71.7606 22.8322 71.1546 22.2156ZM75.7993 13.9173C75.3161 13.9125 74.8372 14.0076 74.3925 14.1965C73.9478 14.3854 73.5469 14.664 73.215 15.0151C72.5295 15.7619 72.1573 16.7435 72.1753 17.7571C72.1394 18.2508 72.2054 18.7466 72.3694 19.2137C72.5334 19.6808 72.7917 20.1092 73.1284 20.4721C73.465 20.8351 73.8728 21.1248 74.3262 21.3234C74.7797 21.5219 75.2692 21.625 75.7642 21.6263C76.2593 21.6275 76.7493 21.5268 77.2037 21.3305C77.6582 21.1342 78.0673 20.8464 78.4058 20.4851C78.7442 20.1239 79.0047 19.6968 79.1709 19.2305C79.3372 18.7642 79.4057 18.2687 79.3722 17.7748C79.4029 17.2853 79.3342 16.7947 79.1702 16.3325C79.0062 15.8703 78.7504 15.446 78.4181 15.0853C78.0858 14.7245 77.684 14.4348 77.2368 14.2335C76.7895 14.0321 76.3062 13.9234 75.8159 13.9138L75.7993 13.9173ZM57.114 22.2156C55.9601 21.0058 55.3224 19.3944 55.3358 17.7227C55.3332 16.8871 55.4972 16.0595 55.8183 15.2881C56.1394 14.5167 56.6112 13.8172 57.206 13.2303C57.8008 12.6435 58.5066 12.1812 59.2822 11.8705C60.0578 11.5598 60.8876 11.4069 61.7231 11.4208C63.3146 11.4198 64.8536 11.9907 66.0595 13.0294C66.7276 13.6263 67.2565 14.3626 67.6091 15.1862C67.9616 16.0098 68.129 16.9008 68.0997 17.7962C68.1098 18.6392 67.9501 19.4757 67.6301 20.2557C67.3102 21.0357 66.8365 21.7434 66.2373 22.3365C64.9985 23.5065 63.353 24.1483 61.6493 24.1262C59.9455 24.1041 58.3172 23.4197 57.1092 22.218L57.114 22.2156ZM61.7586 13.9173H61.7527C61.27 13.9132 60.7917 14.0086 60.3475 14.1974C59.9032 14.3863 59.5027 14.6646 59.1708 15.0151C58.4862 15.7624 58.1141 16.7437 58.1311 17.7571C58.0952 18.2508 58.1613 18.7466 58.3252 19.2137C58.4892 19.6808 58.7475 20.1092 59.0842 20.4721C59.4208 20.8351 59.8286 21.1248 60.2821 21.3234C60.7355 21.5219 61.225 21.625 61.7201 21.6263C62.2151 21.6275 62.7051 21.5268 63.1595 21.3305C63.614 21.1342 64.0231 20.8464 64.3616 20.4851C64.7 20.1239 64.9605 19.6968 65.1268 19.2305C65.293 18.7642 65.3616 18.2687 65.3281 17.7748C65.3586 17.2847 65.2895 16.7935 65.1249 16.3308C64.9604 15.8681 64.7038 15.4435 64.3707 15.0827C64.0375 14.7219 63.6348 14.4323 63.1867 14.2314C62.7385 14.0305 62.2544 13.9224 61.7634 13.9138L61.7586 13.9173ZM141.824 22.7502C141.424 22.2467 141.133 21.6662 140.969 21.0451C140.804 20.424 140.77 19.7756 140.867 19.1405C141.025 18.1034 141.54 17.1538 142.323 16.4557C143.106 15.7575 144.108 15.3545 145.156 15.3162C145.404 15.2913 145.663 15.2783 145.927 15.2783C147.116 15.3061 148.297 15.4861 149.441 15.8141C149.327 15.0285 148.92 14.3155 148.301 13.8186C147.682 13.3216 146.897 13.0778 146.106 13.1361C145.451 13.1218 144.805 13.2829 144.234 13.6027C143.662 13.9224 143.187 14.3892 142.857 14.9546L140.605 13.4455C141.22 12.5396 142.05 11.8001 143.021 11.2927C143.991 10.7853 145.072 10.5259 146.167 10.5376C147.028 10.5226 147.882 10.6831 148.678 11.0092C149.475 11.3353 150.196 11.8202 150.799 12.4343C151.356 13.0505 151.778 13.7766 152.037 14.5657C152.297 15.3548 152.388 16.1896 152.305 17.0161V23.7555H149.508V22.2428C148.889 23.0288 148.038 23.6003 147.076 23.8764C146.5 24.0326 145.905 24.1123 145.308 24.1135C144.665 24.1393 144.023 24.0317 143.423 23.7975C142.824 23.5632 142.279 23.2075 141.824 22.7526V22.7502ZM143.778 19.623C143.773 19.8765 143.818 20.1286 143.913 20.3638C144.008 20.599 144.149 20.8125 144.329 20.9912C144.509 21.1699 144.724 21.3101 144.96 21.4032C145.195 21.4963 145.448 21.5404 145.701 21.5328C145.942 21.5311 146.181 21.4976 146.413 21.4332C147.163 21.2518 147.849 20.8671 148.396 20.3213C148.942 19.7754 149.327 19.0896 149.509 18.3391C148.753 18.0758 147.974 17.8888 147.181 17.7808C146.895 17.7367 146.607 17.7137 146.318 17.712C144.473 17.7156 143.797 18.7445 143.78 19.6253L143.778 19.623ZM138.055 23.7531H135.257V5.02281H138.056V23.7531H138.055ZM123.212 23.7531H120.418V5.02281H123.215H127.191C128.774 5.02281 130.291 5.65129 131.41 6.76999C132.528 7.88869 133.157 9.40598 133.157 10.9881C133.157 12.5701 132.528 14.0874 131.41 15.2061C130.291 16.3248 128.774 16.9533 127.191 16.9533H123.215V23.7472L123.212 23.7531ZM123.219 14.1604H127.19C128.02 14.1443 128.81 13.8036 129.39 13.2114C129.971 12.6193 130.297 11.8229 130.297 10.9934C130.297 10.1639 129.971 9.36753 129.39 8.77536C128.81 8.18319 128.02 7.84247 127.19 7.82643H123.219V14.1604ZM100.538 23.7555H97.7386V5.02518H100.538V23.7555ZM16.2973 14.5338L20.6207 10.1582L26.5741 13.4052C28.0417 14.2054 27.2854 15.2059 26.5741 15.5983L20.6254 18.8548L16.2973 14.5338ZM1.74218 0C1.9557 0.025486 2.16268 0.0901914 2.3527 0.19086L19.8478 9.73621L15.6986 13.9351L1.74218 0Z" fill="white"/>
</svg>
